<svg xmlns="http://www.w3.org/2000/svg" xmlns:xlink="http://www.w3.org/1999/xlink" width="81.275" height="81.275" viewBox="0 0 81.275 81.275">
  <defs>
    <clipPath id="clip-path">
      <circle id="Ellipse_387" data-name="Ellipse 387" cx="40.637" cy="40.637" r="40.637" fill="none"/>
    </clipPath>
    <linearGradient id="linear-gradient" x1="-0.002" y1="0.493" x2="1" y2="0.493" gradientUnits="objectBoundingBox">
      <stop offset="0" stop-color="#1d3034"/>
      <stop offset="1" stop-color="#162d33"/>
    </linearGradient>
    <linearGradient id="linear-gradient-2" x1="0" y1="0.496" x2="0.996" y2="0.496" xlink:href="#linear-gradient"/>
    <linearGradient id="linear-gradient-3" x1="-0.002" y1="0.501" x2="1.001" y2="0.501" gradientUnits="objectBoundingBox">
      <stop offset="0.01" stop-color="#ffa60b"/>
      <stop offset="1" stop-color="#ffb524"/>
    </linearGradient>
    <linearGradient id="linear-gradient-4" x1="7.701" y1="-35.778" x2="8.658" y2="-35.778" xlink:href="#linear-gradient-3"/>
  </defs>
  <g id="Group_1331" data-name="Group 1331" transform="translate(-423.475 97.616)">
    <g id="Character_cat-15" transform="translate(423.475 -97.616)">
      <g id="Layer_10" data-name="Layer 10" transform="translate(0 0)">
        <circle id="Ellipse_384" data-name="Ellipse 384" cx="40.637" cy="40.637" r="40.637" fill="#a4a8ea"/>
        <g id="Group_324" data-name="Group 324" clip-path="url(#clip-path)">
          <path id="Path_6868" data-name="Path 6868" d="M43.428,27.144c-.116-.581-.261-1.191-.436-1.815q-.348-1.307-.871-2.7s.711-4.849.073-4.936-1.35,2.555-1.35,2.555.639-4.544-.232-4.777-1.757,2.149-1.757,2.149a3.02,3.02,0,0,0-1.728-2.337,1.568,1.568,0,0,0,0-.247,2.715,2.715,0,0,0-.407-.61s3.891-6.5,5.1-7.012h0C42.934,6.934,47.972,22.788,43.428,27.144Z" transform="translate(16.592 3.33)" fill="#494949"/>
          <path id="Path_6869" data-name="Path 6869" d="M57.447,85.7v1.118a18.119,18.119,0,0,1-3.935,3.426,10.787,10.787,0,0,1-2.642,1.22,8.813,8.813,0,0,1-3.978.276c-1.742-.232-3.339-2.221-9.6-3.151a20.66,20.66,0,0,0-6.649.189c-.653.116-1.278.247-1.858.392a27.354,27.354,0,0,0-4.356,1.452s-.174,1.96-.073,0a13.56,13.56,0,0,0-.1-1.786c-.348-3.426-1.452-9.844-1.452-9.844a75.5,75.5,0,0,1-10.845-.711c-1.553-1.568-3.049-6.969-3.121-13.067a28.209,28.209,0,0,1,3.528-14.983,31.462,31.462,0,0,1,7.448-8.479l.45-.319a20.327,20.327,0,0,1,2.889-1.713l.421-.2a11.615,11.615,0,0,1,2.439-.9,49.043,49.043,0,0,1,6.214-1,31.273,31.273,0,0,1,11.8.886h0a23.491,23.491,0,0,1,5.706,2.439,23.1,23.1,0,0,1,1.975,1.292c.581.407,1.132.842,1.67,1.292.9.74,1.742,1.539,2.541,2.337,1.22,1.234,2.352,2.512,3.426,3.731,6.156,7,12.863,25.9,12.863,25.9L57,75.857l.261,6.475Z" transform="translate(3.981 16.888)" fill="#1e1e1e"/>
          <path id="Path_6870" data-name="Path 6870" d="M34.23,39.328l-.711,2.062-.145.407-4.21,3.644L19,39.5a11.615,11.615,0,0,1,2.439-.9,49.043,49.043,0,0,1,6.214-1l6.316,1.713Z" transform="translate(8.585 16.975)" fill="url(#linear-gradient)"/>
          <path id="Path_6871" data-name="Path 6871" d="M41.36,40.6l-6.374,4.588-5.241-4.036h0l-2.4-1.771,2.817-.392c1.655-.247,3.76-.552,5.488-.828h0A23.491,23.491,0,0,1,41.36,40.6Z" transform="translate(12.358 17.228)" fill="url(#linear-gradient-2)"/>
          <path id="Path_6872" data-name="Path 6872" d="M37.89,13.579s1.975-3.151,2.9-3.209,1.612,8.813,1.612,8.711-.61-3.572-1.263-3.4a1.945,1.945,0,0,0-1.016.711s-.116-2.8-.6-3.151S37.89,13.579,37.89,13.579Z" transform="translate(17.121 4.671)" fill="#fff"/>
          <path id="Path_6873" data-name="Path 6873" d="M27.868,13.677a22.983,22.983,0,0,0-10.6,7.129,12.878,12.878,0,0,0-.857,1.132c-2.9-5.111-1.031-13.618-.9-14.228H16.4a16.885,16.885,0,0,1,11.615,5.256,1.1,1.1,0,0,1-.145.711Z" transform="translate(6.686 3.469)" fill="#494949"/>
          <path id="Path_6874" data-name="Path 6874" d="M54.778,34.745a21.081,21.081,0,0,0-4.922.232,29.7,29.7,0,0,0-11.818,4.907,23.912,23.912,0,0,0-14.083-5.72H22.59a27.048,27.048,0,0,0-7.463.857,21.022,21.022,0,0,0-2.337.769c.145-1.074,1.452-9.408,4.123-13.72.131-.2.261-.407.407-.6A21.313,21.313,0,0,1,19.149,19.2a22.155,22.155,0,0,1,9.393-6.228h.131a5.547,5.547,0,0,1,.261-.508c.624-1.016,2.512-3.31,7.056-3.557,5.895-.319,8.595,1.452,8.595,1.452l-3.426,1.031c4.007.45,5.677,1.6,6.359,2.41a1.975,1.975,0,0,1,.479.857,3.02,3.02,0,0,1,1.67,2.308s.886-2.381,1.757-2.149.232,4.777.232,4.777.726-2.628,1.35-2.555-.073,4.936-.073,4.936a30.127,30.127,0,0,1,1.307,4.515A27.585,27.585,0,0,1,54.778,34.745Z" transform="translate(5.779 3.99)" fill="#494949"/>
          <path id="Path_6875" data-name="Path 6875" d="M62.224,34.4a33.027,33.027,0,0,0-3.4.16,7.985,7.985,0,0,1-3.484,6.635A34.714,34.714,0,0,1,35.887,47a25.117,25.117,0,0,1-15.854-5.807s-3.47-1.205-3.949-1.452c-.711-.421,2.9-1.67,2.9-1.67s-3.049-.958-5.14-1.365c-3.049-.581.247-.726,2.512-2.642a26.67,26.67,0,0,1-5.256.363c-.769-.3,2.512-2.8,2.512-2.8L9.26,31.131a18.032,18.032,0,0,1,5.183-3.151,25.015,25.015,0,0,1,9.8-1.626h1.365a24.855,24.855,0,0,1,3.978.61,23.868,23.868,0,0,1,9.64,4.689,3.572,3.572,0,0,1,.407.363A29.7,29.7,0,0,1,51.451,27.11a21.081,21.081,0,0,1,4.922-.232c3.47.276,5.532,1.757,6.272,4.53A11.847,11.847,0,0,0,58.289,31C58.318,30.972,60.409,31.015,62.224,34.4Z" transform="translate(4.184 11.887)" fill="#fff"/>
          <path id="Path_6876" data-name="Path 6876" d="M22.889,11.881s-5.807-3.165-6.49-2.8.407,8.232.653,8.595c0,0,.479-2.686,1.365-2.9s2.4.436,2.9-.116-1.684-3.092-1.684-3.092Z" transform="translate(7.31 4.075)" fill="#fff"/>
          <path id="Path_6877" data-name="Path 6877" d="M19.555,18.262c-.189.624,1.147,2.033,5.14,1.191s4.544-2.9,4.152-3.426-1.786.886-4.6,1.292S19.773,17.594,19.555,18.262Z" transform="translate(8.828 7.175)" fill="#fff"/>
          <path id="Path_6878" data-name="Path 6878" d="M33.509,19.654c-.61-.537,1.031-2.584,3.891-2.483s3.746,1.641,3.673,2.294c0,.421-1.945-.566-3.717-.392C35.106,19.276,34.279,20.293,33.509,19.654Z" transform="translate(15.084 7.743)" fill="#fff"/>
          <path id="Path_6879" data-name="Path 6879" d="M34.057,29.36l-2.976,2.7A10.86,10.86,0,0,0,28.09,28.91h0c0-.087.813-.886,3.238-.668a4.356,4.356,0,0,1,2.657,1.06Z" transform="translate(12.693 12.73)" fill="#c56058"/>
          <path id="Path_6880" data-name="Path 6880" d="M34.057,29.145l-2.976,2.7A10.86,10.86,0,0,0,28.09,28.7h0c2.337-.276,2.9,2.831,2.9,2.831.116-1.916,2.178-2.4,2.9-2.439Z" transform="translate(12.693 12.944)" fill="#723624" opacity="0.4"/>
          <path id="Path_6881" data-name="Path 6881" d="M24.67,16.163a15.259,15.259,0,0,0,14.722,1.452,2.991,2.991,0,0,0-1.9-.9,17.611,17.611,0,0,0,5.807-2.4,14.925,14.925,0,0,0-10.163-3.557A52.426,52.426,0,0,1,41.6,14.015a8.914,8.914,0,0,1-7.259,2.062s2.9.726,3.223,1.365a33.77,33.77,0,0,1-6.316.29,15.433,15.433,0,0,1-6.577-1.568Z" transform="translate(11.147 4.845)" fill="#606060" opacity="0.43"/>
          <path id="Path_6882" data-name="Path 6882" d="M17.269,20.806a12.878,12.878,0,0,0-.857,1.132c-2.9-5.111-1.031-13.618-.9-14.228-.3,1.742-.334,8.711.784,11.252a9.132,9.132,0,0,0,.973,1.844Z" transform="translate(6.686 3.469)" fill="#282828" opacity="0.4"/>
          <path id="Path_6883" data-name="Path 6883" d="M16.78,16.86Z" transform="translate(7.582 7.604)" fill="#f37706" opacity="0.4"/>
          <path id="Path_6884" data-name="Path 6884" d="M41.846,27.153c-.116-.581-.261-1.191-.436-1.815a23.23,23.23,0,0,0,1.074-8.348,34.67,34.67,0,0,0-2.265-9.6h0C41.352,6.943,46.39,22.8,41.846,27.153Z" transform="translate(18.173 3.322)" fill="#282828" opacity="0.4"/>
          <path id="Path_6885" data-name="Path 6885" d="M15.127,31.765a21.022,21.022,0,0,0-2.337.769c.145-1.074,1.452-9.408,4.123-13.72.131-.2.261-.407.407-.6a21.313,21.313,0,0,1,1.829-2.279h0C17.305,18.423,14.706,26,15.127,31.765Z" transform="translate(5.779 7.188)" fill="#282828" opacity="0.4"/>
          <path id="Path_6886" data-name="Path 6886" d="M27.682,67.217l-.769,1.161-3.978-1.626c-1.568-.653-3.426-1.452-5.2-2.221,0,0-1.35-6.679-1.539-9.031a4.443,4.443,0,0,1,.871-3.441s2.134,10.613,2.584,11.4c0,0,1.263.653,2.9,1.452.842.421,1.8.871,2.729,1.292Z" transform="translate(7.293 23.509)" fill="#abd2e1"/>
          <circle id="Ellipse_385" data-name="Ellipse 385" cx="1.074" cy="1.074" r="1.074" transform="translate(41.407 62.038)" fill="#fff"/>
          <circle id="Ellipse_386" data-name="Ellipse 386" cx="1.074" cy="1.074" r="1.074" transform="translate(41.407 66.248)" fill="#fff"/>
          <path id="Path_6887" data-name="Path 6887" d="M29.3,28.3a10.236,10.236,0,0,1-3.368.653,5.807,5.807,0,0,1-2.4-.465c-2.454-1.161-4.689-3.905-4.094-5.807s4.167-3.746,7.143-1.815l.29.2C29.56,23.072,29.531,27.021,29.3,28.3Z" transform="translate(8.74 9.043)" fill="#fff"/>
          <path id="Path_6888" data-name="Path 6888" d="M27.945,27.98a10.236,10.236,0,0,1-3.368.653,4.268,4.268,0,0,1,.944-7.884C28.207,22.754,28.178,26.7,27.945,27.98Z" transform="translate(10.093 9.361)" fill="url(#linear-gradient-3)"/>
          <path id="Path_6889" data-name="Path 6889" d="M29.268,28.673a9.6,9.6,0,0,0-1-7.1,4.82,4.82,0,0,0-8.856,1.452s1.307-3.5,5.473-1.844C27.99,22.445,29.268,28.673,29.268,28.673Z" transform="translate(8.77 8.668)" fill="#313233"/>
          <path id="Path_6890" data-name="Path 6890" d="M24.769,23.334a1.074,1.074,0,1,1-1.06-1.074,1.06,1.06,0,0,1,1.06,1.074Z" transform="translate(10.221 10.044)" fill="#fff"/>
          <path id="Path_6891" data-name="Path 6891" d="M38.68,28.02a5.14,5.14,0,0,1-2.788,1.234c-2.9.232-4.544-1.292-4.6-2.033a6.911,6.911,0,0,1,4.356-4.878,12.4,12.4,0,0,1,1.568-.523c2.468-.639,4.457-.16,4.356.784A7.971,7.971,0,0,1,38.68,28.02Z" transform="translate(14.138 9.714)" fill="#fff"/>
          <path id="Path_6892" data-name="Path 6892" d="M37.189,28.02A3.746,3.746,0,0,1,34.648,23.8a3.688,3.688,0,0,1,1.045-1.975c2.468-.639,4.457-.16,4.356.784a7.971,7.971,0,0,1-2.86,5.415Z" transform="translate(15.629 9.714)" fill="url(#linear-gradient-4)"/>
          <path id="Path_6893" data-name="Path 6893" d="M31.3,27.353a8.522,8.522,0,0,1,3.165-5.067c3.092-2.715,6.243-1.35,6.94-.377a1.452,1.452,0,0,1,.174,1.452s-.682-1.539-4.457-.74A9.873,9.873,0,0,0,31.3,27.353Z" transform="translate(14.143 9.335)" fill="#313233"/>
          <path id="Path_6894" data-name="Path 6894" d="M36.7,23.857a1.074,1.074,0,0,1-1.249.857,1.06,1.06,0,1,1,1.249-.857Z" transform="translate(15.634 10.203)" fill="#fff"/>
          <path id="Path_6895" data-name="Path 6895" d="M31.308,27.319a11.412,11.412,0,0,1,5.546-4.356,5.59,5.59,0,0,1,4.748.2,2.744,2.744,0,0,0-2.512-1.945c-2.178-.3-5.067,1.452-6.649,3.7S31.308,27.319,31.308,27.319Z" transform="translate(14.12 9.559)" fill="#a9a19c" opacity="0.5"/>
          <path id="Path_6896" data-name="Path 6896" d="M29.245,28.4a13.836,13.836,0,0,0-1.452-5.895c-1.089-2.062-5.662-4.907-8.334.116,0,0,1.945-2.9,4.646-1.292S29.245,28.4,29.245,28.4Z" transform="translate(8.793 8.94)" fill="#a9a19c" opacity="0.5"/>
        </g>
        <path id="Path_6897" data-name="Path 6897" d="M31.809,38.052a12.239,12.239,0,0,1-7.143-2.294.276.276,0,0,1,0-.392.29.29,0,0,1,.407,0c.377.465,6.722,4.356,12.573.189a.29.29,0,1,1,.334.465,10.555,10.555,0,0,1-6.17,2.033Z" transform="translate(11.108 15.928)" fill="#9f3a3a"/>
      </g>
    </g>
  </g>
</svg>
