<svg xmlns="http://www.w3.org/2000/svg" xmlns:xlink="http://www.w3.org/1999/xlink" width="81.188" height="81.188" viewBox="0 0 81.188 81.188">
  <defs>
    <clipPath id="clip-path">
      <circle id="Ellipse_326" data-name="Ellipse 326" cx="40.594" cy="40.594" r="40.594" fill="none"/>
    </clipPath>
    <linearGradient id="linear-gradient" x1="0.851" y1="0.244" x2="0.205" y2="0.879" gradientUnits="objectBoundingBox">
      <stop offset="0" stop-color="#93989a"/>
      <stop offset="1" stop-color="#505254"/>
    </linearGradient>
    <linearGradient id="linear-gradient-2" x1="1.651" y1="-2.192" x2="0.747" y2="-0.15" gradientUnits="objectBoundingBox">
      <stop offset="0" stop-color="#1d3034"/>
      <stop offset="1" stop-color="#162d33"/>
    </linearGradient>
    <linearGradient id="linear-gradient-3" x1="0.001" y1="0.499" x2="1" y2="0.499" xlink:href="#linear-gradient-2"/>
    <linearGradient id="linear-gradient-4" x1="0" y1="0.501" x2="1" y2="0.501" xlink:href="#linear-gradient-2"/>
    <linearGradient id="linear-gradient-5" x1="0.357" y1="0.902" x2="0.525" y2="0.024" gradientUnits="objectBoundingBox">
      <stop offset="0" stop-color="#1d3034"/>
      <stop offset="1" stop-color="#06242a"/>
    </linearGradient>
    <linearGradient id="linear-gradient-6" x1="0" y1="0.508" x2="1" y2="0.508" xlink:href="#linear-gradient-2"/>
    <linearGradient id="linear-gradient-7" x1="0" y1="0.499" x2="1" y2="0.499" xlink:href="#linear-gradient-2"/>
    <linearGradient id="linear-gradient-8" x1="1.318" y1="-0.268" x2="-0.015" y2="1.341" xlink:href="#linear-gradient"/>
    <linearGradient id="linear-gradient-9" x1="-0.026" y1="0.498" x2="0.999" y2="0.498" xlink:href="#linear-gradient"/>
    <linearGradient id="linear-gradient-10" y1="0.5" x2="1.002" y2="0.5" gradientUnits="objectBoundingBox">
      <stop offset="0.01" stop-color="#ffa60b"/>
      <stop offset="1" stop-color="#ffb524"/>
    </linearGradient>
    <linearGradient id="linear-gradient-11" x1="0.269" y1="-0.062" x2="0.399" y2="0.459" gradientUnits="objectBoundingBox">
      <stop offset="0" stop-color="#fb998f"/>
      <stop offset="1" stop-color="#fb7a6f"/>
    </linearGradient>
    <linearGradient id="linear-gradient-12" x1="1.03" y1="0.087" x2="0.582" y2="0.7" xlink:href="#linear-gradient-11"/>
    <linearGradient id="linear-gradient-13" x1="8.52" y1="-26.85" x2="9.464" y2="-26.85" xlink:href="#linear-gradient-10"/>
    <linearGradient id="linear-gradient-14" x1="-0.001" y1="0.501" x2="1" y2="0.501" xlink:href="#linear-gradient"/>
    <linearGradient id="linear-gradient-15" x1="0.703" y1="1.088" x2="0.341" y2="0.056" gradientUnits="objectBoundingBox">
      <stop offset="0.01" stop-color="#6b3e15"/>
      <stop offset="1" stop-color="#813305"/>
    </linearGradient>
    <linearGradient id="linear-gradient-16" x1="0.689" y1="0.917" x2="0.354" y2="0.18" xlink:href="#linear-gradient-15"/>
    <linearGradient id="linear-gradient-17" x1="0.541" y1="1.053" x2="0.476" y2="0.421" xlink:href="#linear-gradient-2"/>
    <linearGradient id="linear-gradient-18" x1="0.435" y1="0.026" x2="0.561" y2="0.744" gradientUnits="objectBoundingBox">
      <stop offset="0" stop-color="#025d72"/>
      <stop offset="1" stop-color="#1c6779"/>
    </linearGradient>
    <linearGradient id="linear-gradient-19" x1="0.482" y1="0.024" x2="0.499" y2="0.718" xlink:href="#linear-gradient-18"/>
    <linearGradient id="linear-gradient-20" x1="0.08" y1="0.028" x2="0.657" y2="0.743" xlink:href="#linear-gradient-18"/>
  </defs>
  <g id="Group_1328" data-name="Group 1328" transform="translate(-106.978 119.655)">
    <g id="Character_cat-06" transform="translate(106.978 -119.655)">
      <g id="Layer_10" data-name="Layer 10" transform="translate(0 0)">
        <circle id="Ellipse_325" data-name="Ellipse 325" cx="40.594" cy="40.594" r="40.594" fill="#ceeaef"/>
        <g id="Group_269" data-name="Group 269" clip-path="url(#clip-path)">
          <path id="Path_2235" data-name="Path 2235" d="M56.028,37.7a13.763,13.763,0,0,0-2.657-2.555s3.5-6.272,2.526-11.368v-.363a6.809,6.809,0,0,0-.61-1.612h0c-1.452-2.9-4.835-5.169-8.406-6.577a21.444,21.444,0,0,0-5.561-1.452,14.141,14.141,0,0,1,5.473-.755c-.3-.1-8.45-2.5-13.705,1,0,0-.886-6.795-4.109-10.7h0c-.523.639-8.232,10.076-8.784,18.192,0,0-6.795,10.279-7.8,18.758a8.713,8.713,0,0,1,.537-.726A.929.929,0,0,0,13.068,41a18.526,18.526,0,0,1,3.847-3.121c-.087.131-2.9,4.457-2.555,5.125s3.4-1.22,3.5-1.278-2.439,3.513-2.12,4.167,4.356-.944,4.356-.944-1.205,3.194,4.138,5.227a17.422,17.422,0,0,0,2.7.784q.871.2,1.742.348a48.289,48.289,0,0,0,17.074,0,23.447,23.447,0,0,0,2.367-.537c.247-.087.494-.16.726-.261,4.356-1.684,5.532-4.08,5.532-4.08a11.833,11.833,0,0,0,3.673-.508c.45-.436-2.9-1.858-2.729-2.105s4.457,1.278,5.241.769S59.5,40.894,56.028,37.7Z" transform="translate(5.545 1.384)" fill="url(#linear-gradient)"/>
          <path id="Path_2236" data-name="Path 2236" d="M72.957,60.156c-.45,2.163-3.644,10.424-9.364,10.773S53.5,63.423,53.5,63.423l2.671,24.435L56,88.1a3.136,3.136,0,0,1-.711.668c-1.975,1.365-5.895,1.336-10.018.8l-.886-.174c-1.975-.29-3.964-.682-5.807-1.074a17.117,17.117,0,0,0-6.548,0,28.587,28.587,0,0,0-7.259,2.352h-.145c-3.47-5.953-3.964-18.54-3.964-18.54h-4.82c-4.472-2.425-5.88-8.711-4.036-16.072a32.871,32.871,0,0,1,1.96-5.575,25.567,25.567,0,0,1,7.985-9.916,31.637,31.637,0,0,1,3.31-2.192,27.586,27.586,0,0,1,4.268-1.989h.363l.784.131a50.64,50.64,0,0,0,12.37.363c.755-.073,1.452-.16,2.149-.276l1.452-.247A21.458,21.458,0,0,1,52.515,39.9l.886.755c.653.581,1.22,1.161,1.728,1.7,4.835,5.2,5.5,13.618,9.51,14.678a2.788,2.788,0,0,0,2.976-.871,2.9,2.9,0,0,0,.523-.842Z" transform="translate(4.92 16.313)" fill="url(#linear-gradient-2)"/>
          <path id="Path_2237" data-name="Path 2237" d="M60.172,54.594c-.45,2.163-3.644,10.424-9.364,10.773s-10.09-7.506-10.09-7.506l2.671,24.435-.174.247a3.136,3.136,0,0,1-.711.668,154.634,154.634,0,0,1-2.541-15.665,127.094,127.094,0,0,1-.508-18.874s.276,3.122.726,5.982,5.3,10.787,10.758,9.931,7.709-9.06,7.709-9.06A33.812,33.812,0,0,1,54.83,50.6a2.9,2.9,0,0,0,.523-.842Z" transform="translate(17.705 21.875)" opacity="0.2" fill="url(#linear-gradient-3)"/>
          <path id="Path_2238" data-name="Path 2238" d="M29.692,74.423c.334,3.833.494,4.239.973,5.343a26.57,26.57,0,0,0,1.35,2.454,28.587,28.587,0,0,0-7.259,2.352h-.145C21.155,78.59,20.662,66,20.662,66h-4.82c-4.472-2.425-5.88-8.711-4.036-16.072,0,4.457.653,11.136,3.107,13.56,3.078,3.063,10.8,1.975,13.633,2.033,1.35,0,3.18.131,4.719.218s2.976.189,2.976.189S29.373,70.575,29.692,74.423Z" transform="translate(4.92 22.445)" opacity="0.2" fill="url(#linear-gradient-4)"/>
          <path id="Path_2239" data-name="Path 2239" d="M47.635,51.794h0A89.913,89.913,0,0,0,38.241,68.2h0a9.916,9.916,0,0,0-.958-2.468h0c-.436-.9-1.06-2.091-1.975-3.63-2.9-4.98-11.078-13.517-11.078-13.517l.116-.348,1.873-5.619-6.33-1.539,1.191-2.671a27.586,27.586,0,0,1,4.268-1.989h.363a49.1,49.1,0,0,0,15.3.218l1.452-.247a21.981,21.981,0,0,1,7,4.268L44.034,43.4Z" transform="translate(8.929 16.327)" fill="url(#linear-gradient-5)"/>
          <g id="Group_267" data-name="Group 267" transform="translate(26.671 52.63)" opacity="0.2">
            <path id="Path_2240" data-name="Path 2240" d="M29.139,41.658A28.253,28.253,0,0,1,18.41,40.511a31.635,31.635,0,0,1,3.31-2.192,27.585,27.585,0,0,1,4.268-1.989h.363l.784.131A38.852,38.852,0,0,1,29.139,41.658Z" transform="translate(-18.41 -36.33)" fill="url(#linear-gradient-6)"/>
            <path id="Path_2241" data-name="Path 2241" d="M42.609,39.893a33.944,33.944,0,0,1-7.041,2.076A41.334,41.334,0,0,1,32.94,36.9c.755-.073,1.452-.16,2.149-.276l1.452-.247a21.458,21.458,0,0,1,6.069,3.513Z" transform="translate(-11.845 -36.307)" fill="url(#linear-gradient-7)"/>
          </g>
          <path id="Path_2242" data-name="Path 2242" d="M40.02,49.017A57.931,57.931,0,0,1,38.9,57.829a49.856,49.856,0,0,1-2.41,8.348S35.36,63.274,33.109,57c-.363-1.031-.769-2.163-1.191-3.383a108.511,108.511,0,0,0-5.328-12.21c-.508-1.016-.987-1.931-1.452-2.715s-.944-1.757-1.249-2.294a49.014,49.014,0,0,0,15.288.218h0a14.822,14.822,0,0,1,.479,2.265h0c.116.8.232,1.815.3,3.063a70.5,70.5,0,0,1,.058,7.071Z" transform="translate(10.737 16.331)" fill="#beecf7"/>
          <path id="Path_2243" data-name="Path 2243" d="M45.644,19.5a10.323,10.323,0,0,1-.465,3.3v-.363A7.114,7.114,0,0,0,44.4,20.5a10.9,10.9,0,0,0-2.468-2.9,20.413,20.413,0,0,0-5.807-3.4S41.927,6.942,42.7,5.49l.087.247C43.205,7.1,45.644,14.245,45.644,19.5Z" transform="translate(16.263 2.365)" fill="url(#linear-gradient-8)"/>
          <path id="Path_2244" data-name="Path 2244" d="M43.561,19.419a10.323,10.323,0,0,1-.465,3.3v-.363a7.114,7.114,0,0,0-.784-1.931,16.391,16.391,0,0,0-.218-7.259A39.984,39.984,0,0,1,40.73,5.67C41.122,7.02,43.561,14.163,43.561,19.419Z" transform="translate(18.346 2.446)" opacity="0.3" fill="url(#linear-gradient-9)"/>
          <path id="Path_2245" data-name="Path 2245" d="M31.184,28.172a10.163,10.163,0,0,1-3.354.653,5.807,5.807,0,0,1-2.41-.465c-2.454-1.161-4.675-3.905-4.08-5.807s4.152-3.76,7.129-1.829l.29.218C31.431,22.945,31.4,26.894,31.184,28.172Z" transform="translate(9.54 8.879)" fill="#fff"/>
          <path id="Path_2246" data-name="Path 2246" d="M29.834,27.846a10.163,10.163,0,0,1-3.354.653,4.254,4.254,0,0,1,.929-7.869C30.081,22.619,30.052,26.568,29.834,27.846Z" transform="translate(10.89 9.206)" fill="url(#linear-gradient-10)"/>
          <path id="Path_2247" data-name="Path 2247" d="M31.154,28.534a9.6,9.6,0,0,0-1-7.1c-2.367-3.862-8.247-2.6-8.842,1.452,0,0,1.292-3.5,5.459-1.858C29.876,22.305,31.154,28.534,31.154,28.534Z" transform="translate(9.571 8.517)" fill="#313233"/>
          <path id="Path_2248" data-name="Path 2248" d="M36.366,18.541c-.377-.276.508-2.105,2.512-2.12A3.688,3.688,0,0,1,42.7,19.412a5.619,5.619,0,0,0-3.339-1.321C37.717,18.193,36.715,18.788,36.366,18.541Z" transform="translate(16.336 7.302)" fill="#313233"/>
          <path id="Path_2249" data-name="Path 2249" d="M29.882,17.287c.131-.726-.407-1.728-3.325-1.583s-3.847,1.22-3.847,1.742c0,.261,1.22-.334,3.557-.145C27.85,17.432,29.751,17.984,29.882,17.287Z" transform="translate(10.203 6.974)" fill="#313233"/>
          <path id="Path_2250" data-name="Path 2250" d="M27.635,12.146a56.288,56.288,0,0,0-2.308-5.807c-.218-.479-4.051,5.764-4.936,8.232,0,0,1.742-2.7,2.526-2.773s-.624,2.265-.3,2.178,1.568-2.715,2-2.976.973,1.815,1.336,1.67.392-1.742.508-1.786S27.635,12.146,27.635,12.146Z" transform="translate(9.155 2.736)" fill="url(#linear-gradient-11)"/>
          <path id="Path_2251" data-name="Path 2251" d="M37.78,12.846c.639-.9,3.412-4.617,3.746-4.515S42.644,15.5,42.644,15.5a16.115,16.115,0,0,0-1.452-2.9c-.377-.3-.711,1.292-.711,1.292a5.95,5.95,0,0,0-.2-1.786,9.582,9.582,0,0,0-2.5.74Z" transform="translate(17.013 3.647)" fill="url(#linear-gradient-12)"/>
          <path id="Path_2252" data-name="Path 2252" d="M35.146,29.317a20.864,20.864,0,0,1-3.267,3.412,30.867,30.867,0,0,1-3.63-3.368h0a7.811,7.811,0,0,1,6.9-.131Z" transform="translate(12.707 12.758)" fill="#c56058"/>
          <path id="Path_2253" data-name="Path 2253" d="M35.146,29.087A20.863,20.863,0,0,1,31.88,32.5a30.867,30.867,0,0,1-3.63-3.368A5.372,5.372,0,0,1,31.836,31.9s1.641-2.715,3.31-2.9Z" transform="translate(12.707 12.988)" fill="#723624" opacity="0.3"/>
          <path id="Path_2254" data-name="Path 2254" d="M26.66,23.23a1.06,1.06,0,1,1-1.06-1.06,1.06,1.06,0,0,1,1.06,1.06Z" transform="translate(11.03 9.901)" fill="#fff"/>
          <path id="Path_2255" data-name="Path 2255" d="M40.56,27.847a5.285,5.285,0,0,1-2.8,1.234c-2.9.232-4.53-1.292-4.588-2.033a6.9,6.9,0,0,1,4.356-4.864,10.409,10.409,0,0,1,1.553-.537c2.483-.624,4.457-.145,4.428.784a7.956,7.956,0,0,1-2.947,5.415Z" transform="translate(14.93 9.538)" fill="#fff"/>
          <path id="Path_2256" data-name="Path 2256" d="M39.057,27.847a3.731,3.731,0,0,1-1.452-6.2c2.483-.624,4.457-.145,4.428.784a7.956,7.956,0,0,1-2.976,5.415Z" transform="translate(16.432 9.538)" fill="url(#linear-gradient-13)"/>
          <path id="Path_2257" data-name="Path 2257" d="M33.18,27.223a8.508,8.508,0,0,1,3.165-5.052c3.078-2.729,6.243-1.365,6.925-.392a1.452,1.452,0,0,1,.189,1.452s-.7-1.539-4.457-.74A9.814,9.814,0,0,0,33.18,27.223Z" transform="translate(14.934 9.175)" fill="#313233"/>
          <path id="Path_2258" data-name="Path 2258" d="M38.576,23.729a1.062,1.062,0,1,1-.857-1.234A1.062,1.062,0,0,1,38.576,23.729Z" transform="translate(16.42 10.041)" fill="#fff"/>
          <path id="Path_2259" data-name="Path 2259" d="M33.175,27.192a11.412,11.412,0,0,1,5.546-4.356,5.546,5.546,0,0,1,4.748.2,2.759,2.759,0,0,0-2.512-1.945c-2.221-.348-5.125,1.336-6.577,3.659S33.175,27.192,33.175,27.192Z" transform="translate(14.925 9.395)" fill="#a9a19c" opacity="0.5"/>
          <path id="Path_2260" data-name="Path 2260" d="M40.025,41.961,38.4,39.652l-1.205.7-2.976-2.192s-3.339,3.586-3.47,3.513l-1.742-.944-.973,1.234-1.452-.552c-.508-1.016-.987-1.931-1.452-2.715s-.944-1.757-1.249-2.294a49.015,49.015,0,0,0,15.288.218h0a14.823,14.823,0,0,1,.479,2.265h0C39.778,39.7,39.894,40.712,40.025,41.961Z" transform="translate(10.732 16.331)" fill="#c9e8ec"/>
          <path id="Path_2261" data-name="Path 2261" d="M31.131,28.269a13.836,13.836,0,0,0-1.452-5.895c-1.089-2.047-5.662-4.893-8.319.116,0,0,1.945-2.9,4.646-1.278S31.131,28.269,31.131,28.269Z" transform="translate(9.593 8.783)" fill="#a9a19c" opacity="0.5"/>
          <path id="Path_2262" data-name="Path 2262" d="M60.491,44.543c-.784.508-5.067-1-5.241-.769s3.18,1.67,2.729,2.105a11.833,11.833,0,0,1-3.673.508s-1.1,2.4-5.532,4.08c-.232.1-.479.174-.726.261-4.631,1.452-13.067,1.96-21.1.218a17.423,17.423,0,0,1-2.7-.784c-5.343-2.033-4.138-5.227-4.138-5.227s-4.08,1.612-4.356.944,2.047-4.065,2.12-4.167-3.18,1.931-3.5,1.278,2.468-4.994,2.555-5.125a18.526,18.526,0,0,0-3.847,3.121.929.929,0,0,1-.131-1.452,8.71,8.71,0,0,0-.537.726c1-8.479,7.8-18.758,7.8-18.758C20.768,13.386,28.477,3.949,29,3.31a59.525,59.525,0,0,0-5.807,10.831c-1.568,4.356-1.234,6.243-1.234,6.243s1.9-2.25,2.4-2.657.813-2.25,1.074-2.352-.131,1.742-.131,1.742a14.794,14.794,0,0,1-2.337,3.267A36.3,36.3,0,0,0,17.4,29.632c-1.365,3.325-2.686,8.072-2.033,7.651s2.9-.987,2.9-.421-3.513,5.227-2.512,4.791,3.455-2,3.673-1.583-2.613,4.7-2.221,4.748,3.557-1.045,3.557-.711A5.473,5.473,0,0,0,23,48.608c2.221,1.452,10.163,3.31,15.2,3.209s13.43-1.539,15.215-5.706c0,0,2.555-.407,3.121-.465s-2.5-2.439-2.5-2.439,3.833,1.249,4.748.566-3.151-5.807-6.374-8.1a26.133,26.133,0,0,0,2.729-7.259,15.4,15.4,0,0,0,0-6.664h0a6.809,6.809,0,0,1,.61,1.612c0,.116,0,.232,0,.363.973,5.1-2.526,11.368-2.526,11.368A13.763,13.763,0,0,1,56.019,37.7C59.489,40.9,61.173,44.122,60.491,44.543Z" transform="translate(5.554 1.379)" opacity="0.3" fill="url(#linear-gradient-14)"/>
          <path id="Path_2263" data-name="Path 2263" d="M32.464,33.4a9.437,9.437,0,0,1-5.546-1.786.232.232,0,0,1,0-.3.247.247,0,0,1,.319,0,8.711,8.711,0,0,0,9.785.145.226.226,0,1,1,.319.319A8.232,8.232,0,0,1,32.464,33.4Z" transform="translate(12.079 14.004)" fill="#9f3a3a"/>
          <path id="Path_2264" data-name="Path 2264" d="M39.662,38.874h0l-1.684.973-.842.479-2.918-2.178-3.543,3.47-1.742-.944-3.8-1.96c-.523-.973-.944-1.757-1.249-2.294a50.06,50.06,0,0,0,9.829.7h.769a40.824,40.824,0,0,0,4.689-.45Z" transform="translate(10.732 16.34)" fill="#e5faff"/>
          <g id="Group_268" data-name="Group 268" transform="translate(33.131 64.491)" opacity="0.5">
            <path id="Path_2265" data-name="Path 2265" d="M30.192,51.643a45.007,45.007,0,0,1,5.72,10.352c-.436-.9-1.06-2.091-1.975-3.63-2.9-4.98-11.078-13.517-11.078-13.517l.116-.348a45.108,45.108,0,0,1,7.216,7.143Z" transform="translate(-22.86 -44.5)" opacity="0.4" fill="url(#linear-gradient-15)"/>
            <path id="Path_2266" data-name="Path 2266" d="M42,47A89.912,89.912,0,0,0,32.53,63.406h0a32.057,32.057,0,0,1,8.435-15.97L41.923,47Z" transform="translate(-18.491 -43.37)" opacity="0.4" fill="url(#linear-gradient-16)"/>
          </g>
          <path id="Path_2267" data-name="Path 2267" d="M19.771,48.6c-.16.552-2.018,5.561,1.641,7.913s9.727,2.744,9.727,2.744l-.523,1.452s-7.506-.218-11.005-3.775S19.771,48.6,19.771,48.6Z" transform="translate(8.119 21.844)" opacity="0.2" fill="url(#linear-gradient-17)"/>
          <path id="Path_2268" data-name="Path 2268" d="M28.678,60.813a15.1,15.1,0,0,0,.276,2.367H26.4a13.313,13.313,0,0,1,1.045-7.259l1.9.247a12.442,12.442,0,0,0-.45,1.452,13.067,13.067,0,0,0-.218,3.194Z" transform="translate(11.814 25.151)" fill="#152628"/>
          <path id="Path_2269" data-name="Path 2269" d="M36.381,57.283a49.856,49.856,0,0,1-2.41,8.348s-.915-2.294-2.729-7.259l-.653-1.844.624-14.736-1.278-1.118-.6-.523,2.41-2.541,2.9,2.192-.363.407L33,41.661Z" transform="translate(13.199 16.878)" fill="url(#linear-gradient-18)"/>
          <path id="Path_2270" data-name="Path 2270" d="M34.668,39.8l-.363.407-2.454-1.9L29.935,40.6l-.6-.523,2.337-2.468Z" transform="translate(13.199 16.878)" opacity="0.4" fill="url(#linear-gradient-19)"/>
          <path id="Path_2271" data-name="Path 2271" d="M30.853,57.02,30.2,55.176l.624-14.736a25.916,25.916,0,0,1,.247,5.169C31.086,47.438,30.926,54.16,30.853,57.02Z" transform="translate(13.588 18.157)" opacity="0.4" fill="url(#linear-gradient-20)"/>
          <path id="Path_2272" data-name="Path 2272" d="M33.709,37.088c-1.22.973-4.777,3.63-4.777,3.63l-3.8-2c-.523-.973-.944-1.757-1.249-2.294A50.061,50.061,0,0,0,33.709,37.088Z" transform="translate(10.732 16.34)" fill="#c9e8ec"/>
          <path id="Path_2273" data-name="Path 2273" d="M36.363,38.819h0l-1.684.973-3.5-2.8a40.828,40.828,0,0,0,4.689-.45Z" transform="translate(14.031 16.395)" fill="#c9e8ec"/>
        </g>
      </g>
    </g>
  </g>
</svg>
