<svg id="Character_cat-01" xmlns="http://www.w3.org/2000/svg" xmlns:xlink="http://www.w3.org/1999/xlink" width="80" height="80" viewBox="0 0 80 80">
  <defs>
    <clipPath id="clip-path">
      <circle id="Ellipse_334" data-name="Ellipse 334" cx="40" cy="40" r="40" fill="none"/>
    </clipPath>
    <linearGradient id="linear-gradient" x1="0.651" y1="0.006" x2="0.441" y2="0.767" gradientUnits="objectBoundingBox">
      <stop offset="0" stop-color="#d8eff8"/>
      <stop offset="1" stop-color="#c4ebff"/>
    </linearGradient>
    <linearGradient id="linear-gradient-2" x1="0.017" y1="0.041" x2="1.042" y2="0.906" gradientUnits="objectBoundingBox">
      <stop offset="0.02" stop-color="#3a3e44"/>
      <stop offset="1" stop-color="#252626"/>
    </linearGradient>
    <linearGradient id="linear-gradient-3" x1="0.696" y1="0.006" x2="-0.047" y2="1.07" xlink:href="#linear-gradient-2"/>
    <linearGradient id="linear-gradient-4" x1="1.259" y1="-0.062" x2="0.412" y2="0.774" gradientUnits="objectBoundingBox">
      <stop offset="0" stop-color="#fb998f"/>
      <stop offset="1" stop-color="#fb7a6f"/>
    </linearGradient>
    <linearGradient id="linear-gradient-5" x1="0.841" y1="0.074" x2="0.42" y2="0.871" gradientUnits="objectBoundingBox">
      <stop offset="0" stop-color="#f37706"/>
      <stop offset="1" stop-color="#ff6700"/>
    </linearGradient>
    <radialGradient id="radial-gradient" cx="0.5" cy="0.501" r="0.976" gradientTransform="translate(0.306) scale(0.388 1)" gradientUnits="objectBoundingBox">
      <stop offset="0.01" stop-color="#fdc29a"/>
      <stop offset="0.99" stop-color="#ffb68c"/>
    </radialGradient>
    <linearGradient id="linear-gradient-6" x1="-0.179" y1="-0.262" x2="0.532" y2="0.624" xlink:href="#linear-gradient-4"/>
  </defs>
  <g id="Layer_2" data-name="Layer 2">
    <circle id="Ellipse_333" data-name="Ellipse 333" cx="40" cy="40" r="40" fill="#f7e6cb"/>
  </g>
  <g id="Layer_1" data-name="Layer 1">
    <g id="Group_274" data-name="Group 274" clip-path="url(#clip-path)">
      <path id="Path_3024" data-name="Path 3024" d="M59.07,30c-.12-.57-.26-1.17-.42-1.78-.24-.86-.52-1.76-.86-2.66,0,0,.7-4.78.08-4.86s-1.33,2.51-1.33,2.51.62-4.46-.24-4.7-1.72,2.12-1.72,2.12a3,3,0,0,0-1.65-2.28,1,1,0,0,0-.08-.24,2.18,2.18,0,0,0-.39-.6s3.82-6.4,5-6.9h0C58.65,10.11,63.54,25.73,59.07,30Z" transform="translate(0 0.132)" fill="#f37706"/>
      <path id="Path_3025" data-name="Path 3025" d="M60.46,101v1.1a18,18,0,0,1-3.87,3.37A10.56,10.56,0,0,1,54,106.65a8.75,8.75,0,0,1-3.92.27c-1.73-.23-3.29-2.19-9.45-3.11a20.64,20.64,0,0,0-6.55.2c-.64.11-1.25.24-1.82.38a28.266,28.266,0,0,0-4.24,1.38s-.17,1.94-.06.08a13.12,13.12,0,0,0-.1-1.76c-.34-3.37-1.4-9.69-1.4-9.69a72.379,72.379,0,0,1-10.66-.7c-1.54-1.54-3-6.86-3.08-12.89-.07-5,.84-10.51,3.47-14.74a30.62,30.62,0,0,1,7.34-8.34c.14-.12.29-.22.43-.32a20.9,20.9,0,0,1,2.71-1.68l.41-.2a11.84,11.84,0,0,1,2.4-.89,51.11,51.11,0,0,1,6.12-1,30.84,30.84,0,0,1,11.62.87h0a24.17,24.17,0,0,1,5.55,2.38c.68.41,1.33.83,1.95,1.28s1.11.83,1.63,1.27c.89.74,1.72,1.52,2.51,2.31,1.21,1.22,2.31,2.46,3.38,3.67,6,6.89,12.65,25.49,12.65,25.49l-14.87.36.26,6.37Z" transform="translate(0 0.132)" fill="url(#linear-gradient)"/>
      <path id="Path_3026" data-name="Path 3026" d="M33.89,102.06l-1.87.32c-.31-2.31-.8-5.32-1.39-8.68-.11-.65-.23-1.31-.35-2l1.65-2.12-2.2-.9c-.11-.59-.2-1.06-.32-1.67-2.17-11.58-4.92-24.74-5.84-29.3a20.881,20.881,0,0,1,3.14-2c.43,2.74,1.61,10.11,3.45,20.43.74,4.21,1.4,8.38,1.94,12.14a7.025,7.025,0,0,0,.13.92c.04.3.07.46.1.68.1.72.2,1.42.29,2.1C33.25,96.62,33.69,100.27,33.89,102.06Z" transform="translate(0 0.132)" fill="url(#linear-gradient-2)"/>
      <path id="Path_3027" data-name="Path 3027" d="M58.9,61.77l-2.12,40.85A14.37,14.37,0,0,1,54,103.77c.05-4.14.51-38,.72-45.58a32.881,32.881,0,0,1,4.18,3.58Z" transform="translate(0 0.132)" fill="url(#linear-gradient-3)"/>
      <path id="Path_3028" data-name="Path 3028" d="M42.15,55.42l-.78,2-.15.4-4,3.52-10.1-5.81a11.84,11.84,0,0,1,2.4-.89,51.113,51.113,0,0,1,6.12-1l6.22,1.69Z" transform="translate(0 0.132)" fill="#abd2e1"/>
      <path id="Path_3029" data-name="Path 3029" d="M52.81,56.91l-6.22,4.46-5.22-3.91h0l-2.29-1.71,2.78-.39c1.63-.24,3.7-.54,5.4-.82h0a24.17,24.17,0,0,1,5.55,2.37Z" transform="translate(0 0.132)" fill="#abd2e1"/>
      <path id="Path_3030" data-name="Path 3030" d="M54.15,18s1.94-3.14,2.85-3.2,1.59,8.69,1.59,8.51S58,19.79,57.38,20a1.87,1.87,0,0,0-1,.7s-.12-2.76-.59-3.11S54.15,18,54.15,18Z" transform="translate(0 0.132)" fill="url(#linear-gradient-4)"/>
      <path id="Path_3031" data-name="Path 3031" d="M56.39,59.46C39,67,28.29,60.8,24,57.41a20.9,20.9,0,0,1,2.71-1.68l.41-.2a11.84,11.84,0,0,1,2.4-.89,51.11,51.11,0,0,1,6.12-1,30.84,30.84,0,0,1,11.62.87h0a24.17,24.17,0,0,1,5.55,2.38c.68.41,1.33.83,1.95,1.28A20.6,20.6,0,0,1,56.39,59.46Z" transform="translate(0 0.132)" fill="#abd2e1" opacity="0.5"/>
      <path id="Path_3032" data-name="Path 3032" d="M34,16.88a22.64,22.64,0,0,0-10.43,7c-.3.36-.58.74-.85,1.12-2.86-5-1-13.4-.87-14h.88c6.87,0,11.43,5.18,11.43,5.18A1,1,0,0,1,34,16.88Z" transform="translate(0 0.132)" fill="#f37706"/>
      <path id="Path_3033" data-name="Path 3033" d="M59.61,38.12a22,22,0,0,0-4.85.24,29.21,29.21,0,0,0-11.63,4.82,23.51,23.51,0,0,0-13.87-5.62c-.45,0-.9-.05-1.34-.05a26.08,26.08,0,0,0-7.34.83,20.67,20.67,0,0,0-2.3.76c.14-1.06,1.35-9.26,4-13.5l.4-.59a21.731,21.731,0,0,1,1.81-2.25,22,22,0,0,1,9.23-6.12h.14a3.861,3.861,0,0,1,.26-.48c.61-1,2.47-3.27,6.95-3.51,5.79-.31,8.45,1.49,8.45,1.49l-3.37,1c3.94.44,5.58,1.57,6.26,2.37a1.82,1.82,0,0,1,.47.84,3,3,0,0,1,1.65,2.28s.86-2.35,1.72-2.12.24,4.7.24,4.7.7-2.58,1.33-2.51-.08,4.86-.08,4.86A30.37,30.37,0,0,1,59.07,30a27.68,27.68,0,0,1,.54,8.12Z" transform="translate(0 0.132)" fill="url(#linear-gradient-5)"/>
      <path id="Path_3034" data-name="Path 3034" d="M65.36,45.56a31.23,31.23,0,0,0-3.352.18,7.82,7.82,0,0,1-3.4,6.51,34.1,34.1,0,0,1-19.14,5.64,24.77,24.77,0,0,1-15.61-5.75s-3.41-1.2-3.88-1.47C19.28,50.26,22.8,49,22.8,49s-3-.94-5.05-1.34c-3-.57.24-.72,2.47-2.6,0,0-4.4.65-5.17.36s2.47-2.76,2.47-2.76l-4.35-.49a17.63,17.63,0,0,1,5.11-3.1,24.5,24.5,0,0,1,9.64-1.59h1.34a24.53,24.53,0,0,1,3.93.6,23.75,23.75,0,0,1,9.54,4.66l.4.36a29.21,29.21,0,0,1,11.63-4.82,22,22,0,0,1,4.85-.24c3.41.28,5.44,1.74,6.16,4.47,0,0-3-.81-4.34-.4C61.52,42.19,63.58,42.23,65.36,45.56Z" transform="translate(0 0.132)" fill="url(#radial-gradient)"/>
      <path id="Path_3035" data-name="Path 3035" d="M29.73,15.68s-5.75-3.11-6.4-2.76.41,8.1.65,8.46c0,0,.47-2.64,1.35-2.88s2.35.43,2.81-.12-1.64-3-1.64-3Z" transform="translate(0 0.132)" fill="url(#linear-gradient-6)"/>
      <path id="Path_3036" data-name="Path 3036" d="M27.66,25.66c-.2.65,1.19,2.12,5.36,1.23s4.75-3,4.34-3.57-1.87.93-4.81,1.34S27.87,25,27.66,25.66Z" transform="translate(0 0.132)" fill="#9a360e"/>
      <path id="Path_3037" data-name="Path 3037" d="M47.22,27.16c-.7-.62,1.17-3,4.46-2.85s4.3,1.88,4.23,2.62c0,.5-2.24-.63-4.27-.45C49,26.72,48.06,27.89,47.22,27.16Z" transform="translate(0 0.132)" fill="#9a360e"/>
      <path id="Path_3038" data-name="Path 3038" d="M35,45.09c0,.18,6.69,3.39,14.27,1.67a7.29,7.29,0,0,1-7.93,5C36.68,51.15,35,45.09,35,45.09Z" transform="translate(0 0.132)" fill="#fff"/>
      <path id="Path_3039" data-name="Path 3039" d="M46,41.43l-2.93,2.66A10.64,10.64,0,0,0,40.14,41h0c.07-.09.8-.87,3.2-.65a4.15,4.15,0,0,1,2.61,1Z" transform="translate(0 0.132)" fill="#723624"/>
      <path id="Path_3040" data-name="Path 3040" d="M46,41.43l-2.93,2.66A10.64,10.64,0,0,0,40.14,41h0c2.31-.27,2.93,2.79,2.93,2.79.1-1.9,2.13-2.36,2.88-2.4Z" transform="translate(0 0.132)" fill="#723624" opacity="0.4"/>
      <path id="Path_3041" data-name="Path 3041" d="M47,86.26,45.8,88l-.74,1.09-1.36,2L39.08,86.4s.07-.84.19-2.2c0-.41.07-.86.11-1.35.06-.69.13-1.45.2-2.26,0-.52.09-1.07.14-1.63.08-1,.17-2,.26-3.08,0-.5.08-1,.13-1.52.09-1.08.18-2.16.26-3.21.05-.5.09-1,.13-1.49.1-1.23.2-2.4.29-3.46,0-.35.05-.69.08-1,.07-.91.14-1.7.18-2.32s.08-1,.1-1.28,0-.17,0-.21h0l-1.68-2s1.75-1.53,1.82-1.67l.56.11,2,1.49L42.46,60.9l.23,1.26L43,64l.51,2.82.23,1.28.78,4.39h0l.3,1.66.57,3.21.32,1.77L46.58,84,47,86.08Z" transform="translate(0 0.132)" fill="#18212d"/>
      <path id="Path_3042" data-name="Path 3042" d="M47,86.08l-7.37-5.47c0-.52.09-1.07.14-1.63l6.86,5Z" transform="translate(0 0.132)" fill="#202021" opacity="0.3"/>
      <path id="Path_3043" data-name="Path 3043" d="M45.71,79.13,40,75.9c0-.5.08-1,.13-1.52l5.28,3Z" transform="translate(0 0.132)" fill="#202021" opacity="0.3"/>
      <path id="Path_3044" data-name="Path 3044" d="M44.82,74.15l-4.45-3c.05-.5.09-1,.13-1.49l4,2.8h0Z" transform="translate(0 0.132)" fill="#202021" opacity="0.3"/>
      <path id="Path_3045" data-name="Path 3045" d="M43.74,68.09l-3-1.87c0-.35.05-.69.08-1l2.64,1.61Z" transform="translate(0 0.132)" fill="#202021" opacity="0.3"/>
      <path id="Path_3046" data-name="Path 3046" d="M43,64l-2-1.11c.05-.59.08-1,.1-1.28l1.53.55Z" transform="translate(0 0.132)" fill="#202021" opacity="0.3"/>
      <path id="Path_3047" data-name="Path 3047" d="M35.25,20.69s5.83,4.7,14.5,1.37a3,3,0,0,0-1.88-.89,17.26,17.26,0,0,0,5.67-2.36s-4.44-4-10-3.5c0,0,6.23,1.86,8.4,3.23a8.84,8.84,0,0,1-7.11,2s2.81.72,3.17,1.35a32.94,32.94,0,0,1-6.22.28,15.26,15.26,0,0,1-6.53-1.48Z" transform="translate(0 0.132)" fill="#f36f14" opacity="0.3"/>
      <path id="Path_3048" data-name="Path 3048" d="M37.83,37a2,2,0,0,1-.7.53,8.59,8.59,0,0,1-4.09.59,15.66,15.66,0,0,1-2.23-.3c-3.34-.7-5.39-1.94-5.95-2.66-.92-1.16.89-6.49,6.23-5.85a6.75,6.75,0,0,1,2.69.91,9.36,9.36,0,0,1,4,6.6Z" transform="translate(0 0.132)" fill="#fff"/>
      <path id="Path_3049" data-name="Path 3049" d="M37.83,36.86a4.27,4.27,0,0,1-.7.71,8.59,8.59,0,0,1-4.09.59L32.66,38a4.14,4.14,0,0,1,1.12-7.73A9.36,9.36,0,0,1,37.83,36.86Z" transform="translate(0 0.132)" fill="#837c2e"/>
      <path id="Path_3050" data-name="Path 3050" d="M37.83,37c.23-.59.46-3.24-2-5.79s-10.6-4.32-11.24,2.9a5.2,5.2,0,0,1,5.32-3.57,7.89,7.89,0,0,1,6.81,3.47A8.64,8.64,0,0,1,37.83,37Z" transform="translate(0 0.132)" fill="#633c22"/>
      <path id="Path_3051" data-name="Path 3051" d="M24.59,34.15c.4-.9,8.13-7.18,13.21,2.74,0,0,.34-3.17-3.42-6.23,0,0-5.3-2.91-8.09.08a5.33,5.33,0,0,0-1.7,3.41Z" transform="translate(0 0.132)" fill="#a9a19c" opacity="0.5"/>
      <path id="Path_3052" data-name="Path 3052" d="M32.53,34a.81.81,0,1,1-.81-.81A.81.81,0,0,1,32.53,34Z" transform="translate(0 0.132)" fill="#fff"/>
      <path id="Path_3053" data-name="Path 3053" d="M57.32,35.51c-.31,1.09-2,1.92-4.12,2.35-2.57.53-5.67.45-7.23-.48-.84-.51,1.59-4.54,6-5.71.19-.06.38-.1.57-.14,2.32-.47,3.65,0,4.34.89h0a2.6,2.6,0,0,1,.49,1A3.85,3.85,0,0,1,57.32,35.51Z" transform="translate(0 0.132)" fill="#fff"/>
      <path id="Path_3054" data-name="Path 3054" d="M57.32,35.51c-.31,1.09-2,1.92-4.12,2.35a3.49,3.49,0,0,1-1.26-6.19A3.42,3.42,0,0,1,54,31a3.5,3.5,0,0,1,2.83,1.44h0a3.58,3.58,0,0,1,.49,1,3.85,3.85,0,0,1,0,2.07Z" transform="translate(0 0.132)" fill="#837c2e"/>
      <path id="Path_3055" data-name="Path 3055" d="M46,37.38c-.86-.55-.06-4.67,4.81-6.27s7,1.4,6.7,3.77c0,0-.68-3-4.39-2.65A8.34,8.34,0,0,0,46,37.38Z" transform="translate(0 0.132)" fill="#633c22"/>
      <path id="Path_3056" data-name="Path 3056" d="M46,37.38c.18-.41,3.22-4.07,6.73-4.48,4.15-.48,4.66,2,4.54,2.81,0,0,1.1-1.77-1.25-3.65s-6.06-.18-8.36,2S46,37.38,46,37.38Z" transform="translate(0 0.132)" fill="#a9a19c" opacity="0.5"/>
      <path id="Path_3057" data-name="Path 3057" d="M52.7,34.42a.81.81,0,1,1-.81-.81A.81.81,0,0,1,52.7,34.42Z" transform="translate(0 0.132)" fill="#fff"/>
      <path id="Path_3058" data-name="Path 3058" d="M23.58,23.89c-.3.36-.58.74-.85,1.12-2.86-5-1-13.4-.87-14-.31,1.72-.34,8.52.77,11.08a8.58,8.58,0,0,0,.95,1.8Z" transform="translate(0 0.132)" fill="#f37706" opacity="0.4"/>
      <path id="Path_3059" data-name="Path 3059" d="M24,24.08Z" transform="translate(0 0.132)" fill="#f37706" opacity="0.4"/>
      <path id="Path_3060" data-name="Path 3060" d="M59.07,30c-.12-.57-.26-1.17-.42-1.78A23.32,23.32,0,0,0,59.71,20a34.72,34.72,0,0,0-2.24-9.45h0C58.65,10.11,63.54,25.73,59.07,30Z" transform="translate(0 0.132)" fill="#f37706" opacity="0.4"/>
      <path id="Path_3061" data-name="Path 3061" d="M20.58,38.34a20.671,20.671,0,0,0-2.3.76c.14-1.06,1.35-9.26,4-13.5l.4-.59a21.731,21.731,0,0,1,1.81-2.25h.05C22.72,25.22,20.17,32.67,20.58,38.34Z" transform="translate(0 0.132)" fill="#f37706" opacity="0.4"/>
      <path id="Path_3062" data-name="Path 3062" d="M65.36,45.56a31.23,31.23,0,0,0-3.352.18,7.82,7.82,0,0,1-3.4,6.51,34.1,34.1,0,0,1-19.14,5.64,24.77,24.77,0,0,1-15.61-5.75s-3.41-1.2-3.88-1.47C19.28,50.26,22.8,49,22.8,49s-3-.94-5.05-1.34c-3-.57.24-.72,2.47-2.6,0,0-4.4.65-5.17.36s2.47-2.76,2.47-2.76l-4.35-.49a17.63,17.63,0,0,1,5.11-3.1,24.5,24.5,0,0,1,9.64-1.59h1.34a24.53,24.53,0,0,1,3.93.6H33c-1.33-.38-11-.08-16.24,3.17,0,0,1.76,1.73,3.46,1.55,0,0-2.19,1.29-3.46,2a25.74,25.74,0,0,0,5.34-.41,5.61,5.61,0,0,1-3.82,2.52A31.2,31.2,0,0,0,24,49.08a7,7,0,0,0-2.17,1.35s1.48.93,5.15,3A26.17,26.17,0,0,0,45.2,56.61c8.16-1.56,13.4-4.41,14.77-7.52s1.78-4.69,2.43-4.63a3,3,0,0,0-3.18-2.32A6.82,6.82,0,0,1,64,41.25s-2.82-3-8.45-2.15-10.81,3.28-12.42,5a1.42,1.42,0,0,1-.35-1.27l.4.36a29.21,29.21,0,0,1,11.63-4.82,22,22,0,0,1,4.85-.24c3.41.28,5.44,1.74,6.16,4.47,0,0-3-.81-4.34-.4C61.52,42.19,63.58,42.23,65.36,45.56Z" transform="translate(0 0.132)" fill="#fdc29a" opacity="0.4"/>
      <path id="Path_3063" data-name="Path 3063" d="M34.43,89.3l-.77,1.15-3.91-1.61c-1.54-.64-3.37-1.41-5.11-2.19,0,0-1.33-6.57-1.53-8.88A4.42,4.42,0,0,1,24,74.38c-.06.06,2.1,10.45,2.54,11.22,0,0,1.25.64,2.89,1.43.83.41,1.77.85,2.69,1.27C32.31,88.39,33.93,89.1,34.43,89.3Z" transform="translate(0 0.132)" fill="#abd2e1"/>
    </g>
  </g>
</svg>
