<svg xmlns="http://www.w3.org/2000/svg" xmlns:xlink="http://www.w3.org/1999/xlink" width="81.275" height="81.275" viewBox="0 0 81.275 81.275">
  <defs>
    <clipPath id="clip-path">
      <circle id="Ellipse_395" data-name="Ellipse 395" cx="40.637" cy="40.637" r="40.637" fill="none"/>
    </clipPath>
    <linearGradient id="linear-gradient" x1="0.365" y1="0.081" x2="0.675" y2="0.808" gradientUnits="objectBoundingBox">
      <stop offset="0.02" stop-color="#3a3e44"/>
      <stop offset="1" stop-color="#252626"/>
    </linearGradient>
    <linearGradient id="linear-gradient-2" x1="0.54" y1="0.09" x2="0.143" y2="0.805" xlink:href="#linear-gradient"/>
    <linearGradient id="linear-gradient-3" x1="-339.111" y1="0.492" x2="28.333" y2="0.492" gradientUnits="objectBoundingBox">
      <stop offset="0" stop-color="#f37706"/>
      <stop offset="1" stop-color="#ff6700"/>
    </linearGradient>
    <linearGradient id="linear-gradient-4" x1="0" y1="0.496" x2="0.995" y2="0.496" xlink:href="#linear-gradient-3"/>
    <linearGradient id="linear-gradient-5" x1="-92.753" y1="-52.9" x2="-93.001" y2="-51.994" gradientUnits="objectBoundingBox">
      <stop offset="0" stop-color="#f6c326"/>
      <stop offset="1" stop-color="#f8931c"/>
    </linearGradient>
    <linearGradient id="linear-gradient-6" x1="-104.996" y1="-116.097" x2="-104" y2="-116.097" xlink:href="#linear-gradient-5"/>
    <linearGradient id="linear-gradient-7" x1="-444.033" y1="-564.316" x2="-443.127" y2="-564.316" xlink:href="#linear-gradient-5"/>
    <linearGradient id="linear-gradient-8" x1="-434.969" y1="-356.09" x2="-433.908" y2="-356.09" xlink:href="#linear-gradient-5"/>
    <linearGradient id="linear-gradient-9" x1="-450.894" y1="-290.127" x2="-449.799" y2="-290.127" xlink:href="#linear-gradient-5"/>
    <linearGradient id="linear-gradient-10" x1="-464.359" y1="-731.822" x2="-463.431" y2="-731.822" xlink:href="#linear-gradient-5"/>
    <linearGradient id="linear-gradient-11" x1="0" y1="0.5" x2="1" y2="0.5" xlink:href="#linear-gradient"/>
  </defs>
  <g id="Group_1332" data-name="Group 1332" transform="translate(-113.217 15.824)">
    <g id="Character_cat-19" transform="translate(113.217 -15.824)">
      <g id="Layer_10" data-name="Layer 10" transform="translate(0 0)">
        <circle id="Ellipse_392" data-name="Ellipse 392" cx="40.637" cy="40.637" r="40.637" fill="#f7e6cb"/>
        <g id="Group_327" data-name="Group 327" clip-path="url(#clip-path)">
          <path id="Path_6972" data-name="Path 6972" d="M60.158,49.214a40.55,40.55,0,0,0-6.635-5.619c-.334-.218-.682-.421-1.016-.61a19.9,19.9,0,0,0-3.252-1.452l-.566-.189c-3.659-1.161-8-1.452-14.315-1.089a15.564,15.564,0,0,0-4.6,1.089A24.681,24.681,0,0,0,26.664,42.8a25.276,25.276,0,0,0-2.323,1.452,15.432,15.432,0,0,0-1.452,1.118A42.263,42.263,0,0,0,16.5,51.783,38.285,38.285,0,0,0,9.3,67.275H24.646c.131-1.278.508-1.945,1.263-1.583s1.452.7,2.367,1.06a65.42,65.42,0,0,0,10.889,3.3c1.728.363,3.6.711,5.619,1.016,1.452.2,2.9.407,4.472.566l2.018.2,2.9.218,1.989.116c3.615.174,7.55.218,11.833.1C68.26,67.783,67.955,57,60.158,49.214Z" transform="translate(4.188 18.109)" fill="#fff"/>
          <path id="Path_6973" data-name="Path 6973" d="M38.436,39.05l-.319.944-.465,1.452a17.712,17.712,0,0,1-7.4.871c-1.713-.087-2.9-.276-2.9-.276l-1.1-2.178a40.216,40.216,0,0,0,7.956-.131c.8-.087,1.568-.189,2.279-.3S37.8,39.2,38.436,39.05Z" transform="translate(11.842 17.63)" fill="#494949"/>
          <path id="Path_6974" data-name="Path 6974" d="M38.436,39.05l-.319.944a19.019,19.019,0,0,0-7.869,2.323c-1.713-.087-2.9-.276-2.9-.276l-1.1-2.178a40.216,40.216,0,0,0,7.956-.131c.8-.087,1.568-.189,2.279-.3S37.8,39.2,38.436,39.05Z" transform="translate(11.842 17.63)" fill="#282828" opacity="0.4"/>
          <path id="Path_6975" data-name="Path 6975" d="M42.318,41.3l-4.094,4.356-4.472-3.789-3.964,4.878S26.536,45.9,23.4,41.3A15.564,15.564,0,0,1,28,40.212C34.318,39.951,38.659,40.14,42.318,41.3Z" transform="translate(10.559 18.109)" fill="#2d2d2d"/>
          <path id="Path_6976" data-name="Path 6976" d="M24.064,65.9c-.857-.363-1.641-.711-2.367-1.06-.537-2.9-2.5-16.333-3.078-20.326A30.677,30.677,0,0,1,22.453,42Z" transform="translate(8.399 18.963)" fill="url(#linear-gradient)"/>
          <path id="Path_6977" data-name="Path 6977" d="M40.072,42.555,38.838,71.462l-2.018-.2V41.06a19.9,19.9,0,0,1,3.252,1.5Z" transform="translate(16.623 18.539)" fill="url(#linear-gradient-2)"/>
          <path id="Path_6978" data-name="Path 6978" d="M48.842,43.58a33.625,33.625,0,0,1-29.182.668A25.278,25.278,0,0,1,21.983,42.8a24.681,24.681,0,0,1,3.107-1.452,15.564,15.564,0,0,1,4.6-1.089c6.316-.3,10.657,0,14.315,1.089l.566.189a19.9,19.9,0,0,1,3.252,1.452C48.16,43.158,48.508,43.362,48.842,43.58Z" transform="translate(8.869 18.124)" fill="#e5e5e5" opacity="0.5"/>
          <path id="Path_6979" data-name="Path 6979" d="M41.171,33.436a5.532,5.532,0,0,0-.131-.886S41.084,32.971,41.171,33.436Z" transform="translate(18.529 14.693)" fill="url(#linear-gradient-3)"/>
          <path id="Path_6980" data-name="Path 6980" d="M26.19,39.867a40.217,40.217,0,0,0,7.956-.131,40.649,40.649,0,0,0,4.356-.682S26.9,38.866,26.19,39.867Z" transform="translate(11.819 17.626)" fill="url(#linear-gradient-4)"/>
          <path id="Path_6981" data-name="Path 6981" d="M58.261,42.527c-.465.566-1.452-1.713-1.452-1.844.479,2.047-.1,4.762-.973,5.444-.523.407-.8-.319-.944-.973a7.578,7.578,0,0,0-.131-.871,3.509,3.509,0,0,0,.131.871c.189,2.207-.537,6.577-9.423,8.551a41.553,41.553,0,0,1-4.356.682,40.216,40.216,0,0,1-7.956.131c-8.261-.74-10.628-4.356-10.628-4.356s-.29,2.047-1.452,1.583-.6-3.238-.6-3.238-1.22,3.673-2.076,3.252-1.118-7.869-1.118-7.869-1.365,2.628-2.236,2.033.1-3.789.1-3.789c-1.452.682-2.526,4.356-3.5,2.9S13.109,39.8,13.109,39.8s-2.134.189-2.425-1.074,4.268-2.236,4.268-2.236a21.008,21.008,0,0,1,.886-12.442c-2.308-4.66-2.5-15.056-1.786-16.13a1.1,1.1,0,0,1,.189-.247c.7-.639,1.858.261,4.965,1.321,3.4,1.161,6.214,1.365,7,2.526a16.377,16.377,0,0,1,9.727-3.6,19.469,19.469,0,0,1,10.613,2.628c5.314-1.655,8.363-5.183,9.437-3.47a1.829,1.829,0,0,1,.174.377c.842,2.628-1.975,14.243-1.975,14.243a20.82,20.82,0,0,1-.29,9.437C58.566,37.474,58.755,42.019,58.261,42.527Z" transform="translate(4.807 2.974)" fill="#494949"/>
          <path id="Path_6982" data-name="Path 6982" d="M58.261,42.375c-.465.566-1.452-1.713-1.452-1.844.479,2.047-.1,4.762-.973,5.444-.523.407-.8-.319-.944-.973.189,2.207-.537,6.577-9.423,8.551a41.553,41.553,0,0,1-4.356.682,40.216,40.216,0,0,1-7.956.131c-8.261-.74-10.628-4.356-10.628-4.356s-.29,2.047-1.452,1.583-.6-3.238-.6-3.238-1.22,3.673-2.076,3.252S17.29,43.74,17.29,43.74s-1.365,2.628-2.236,2.033.1-3.789.1-3.789c-1.452.682-2.526,4.356-3.5,2.9s1.452-5.241,1.452-5.241-2.134.189-2.425-1.074,4.268-2.236,4.268-2.236a21.008,21.008,0,0,1,.886-12.442c-2.308-4.66-2.5-15.056-1.786-16.13a1.1,1.1,0,0,1,.189-.247,32.725,32.725,0,0,0,.769,9.989,31.128,31.128,0,0,0,1.829,5.648S14.735,33.882,16.1,36.06a14.794,14.794,0,0,1,6.664,1.626c-.2,0-5.227-1.1-7.448.116s-2,3.4-1.234,3.484S16.1,40.081,16.1,40.081s-1.626,3.368-.523,4.036,2.134-3.136,2.134-3.136,0,8.363,1.031,8.363,2.018-3.833,2.018-3.833,0,4.806.523,4.675,1.452-2.207,1.452-2.207-.3,2.991,5.43,4.544,18.453,1.452,22.78-1.887c3.76-2.817,4.022-5.4,3.63-7.317.247.828.668,1.8,1.089,1.278.7-.871.755-4.457.232-5.807,0,0,1.452,2.381,1.7,1.612s-2.425-7.869-4.689-9.713a21.618,21.618,0,0,0,.581-10.163S56.272,11.2,55.953,6.95a1.83,1.83,0,0,1,.174.377c.871,2.6-1.945,14.214-1.945,14.214a20.82,20.82,0,0,1-.29,9.437C58.566,37.323,58.755,41.867,58.261,42.375Z" transform="translate(4.807 3.126)" fill="#282828" opacity="0.4"/>
          <path id="Path_6983" data-name="Path 6983" d="M21.075,12.4c-.624-.639-4.225-2.831-6.17-2.584,0,0-1.118,4.864,0,7.143,0,0-.29-1.06.682-1.205s2.163.915,2.163.915-1.975-1.887-1.089-2.613A18.627,18.627,0,0,1,21.075,12.4Z" transform="translate(6.496 4.412)" fill="#fff"/>
          <path id="Path_6984" data-name="Path 6984" d="M36.662,10.608c-1.176-.3,5.691-2.367,6.359-2.163S42,13.526,41.569,15.413a1.9,1.9,0,0,0,0,.218c-.348,1.713-.392-1.452-.973-.436,0,0,.377-3.746-1.031-3.5s-1.016,1.074-1.016,1.074S37.533,10.84,36.662,10.608Z" transform="translate(16.49 3.795)" fill="#fff"/>
          <path id="Path_6985" data-name="Path 6985" d="M22.22,14.912s1.452,3.949,7.724,3.818S36.317,15.7,36.317,15.7a9.045,9.045,0,0,0,4.617-2.759s-1.06-3.688-7-2.9a7.593,7.593,0,0,1,6.272,2.773s-3.5,3.7-12.5,2.468c0,0,2.149,1.728,7.985.566,0,0-1.9,3.063-7.346,2.279S22.22,14.912,22.22,14.912Z" transform="translate(10.026 4.47)" fill="#606060" opacity="0.43"/>
          <path id="Path_6986" data-name="Path 6986" d="M54.556,36.409a22.837,22.837,0,0,1-2.308-.116,4.733,4.733,0,0,0-2.352-4.08,25.233,25.233,0,0,0-13.2-3.543,18,18,0,0,0-10.773,3.615s-2.352.74-2.671.915S25.2,34.231,25.2,34.231s-2.062.6-3.484.842c-2.076.348.16.45,1.7,1.626a19.034,19.034,0,0,0-3.557-.29c-.537.174,1.7,1.728,1.7,1.728l-3.005.3a12.239,12.239,0,0,0,3.557,1.989,18.09,18.09,0,0,0,6.649,1h.929a17.887,17.887,0,0,0,9.277-3.3l.276-.232a21.328,21.328,0,0,0,8.029,3.034,17.06,17.06,0,0,0,3.339.145c2.352-.174,3.76-1.089,4.254-2.8a8.523,8.523,0,0,1-2.991.247S53.322,38.485,54.556,36.409Z" transform="translate(8.367 12.94)" fill="#fff"/>
          <path id="Path_6987" data-name="Path 6987" d="M34.611,28.2c0,1.132-2.265,3.586-2.265,3.586-.537-.828-2.5-2.512-2.991-3.136h0c-.1-.131-.145-.218-.087-.232a11.615,11.615,0,0,1,5.328-.232Z" transform="translate(13.199 12.628)" fill="#c56058"/>
          <path id="Path_6988" data-name="Path 6988" d="M34.6,28.139c0,1.132-2.265,3.586-2.265,3.586-.537-.828-2.5-2.512-2.991-3.136h0l-.087-.232s2.831.915,3.165,2.9a9.786,9.786,0,0,1,2.163-3.151Z" transform="translate(13.207 12.687)" fill="#723624" opacity="0.3"/>
          <path id="Path_6989" data-name="Path 6989" d="M23.834,26.312a.842.842,0,1,1-.523-.779.842.842,0,0,1,.523.779Z" transform="translate(9.994 11.494)" fill="#fff"/>
          <path id="Path_6990" data-name="Path 6990" d="M37.03,25.5a.842.842,0,1,1-.835-.732.842.842,0,0,1,.835.732Z" transform="translate(15.963 11.176)" fill="#fff"/>
          <path id="Path_6991" data-name="Path 6991" d="M40.74,31.33a5.967,5.967,0,0,1,.247.944C40.842,31.809,40.755,31.388,40.74,31.33Z" transform="translate(18.394 14.142)" fill="#f37706" opacity="0.4"/>
          <path id="Path_6992" data-name="Path 6992" d="M34.324,26.689a4.791,4.791,0,0,0,.377-2.541A2.628,2.628,0,0,0,33.25,22.13a5.1,5.1,0,0,1,0,1.815,4.065,4.065,0,0,0-3.63-1.655A9.364,9.364,0,0,0,25.7,23.6a29.3,29.3,0,0,0-3.513,2.25,21.081,21.081,0,0,1-1.96,1.452,7.7,7.7,0,0,1-5.067.944,4.98,4.98,0,0,1,.465.624,2.729,2.729,0,0,0,1.829.726,31.011,31.011,0,0,0,8.711.247c1.249-.2,2.454-.566,3.7-.711a6.9,6.9,0,0,1,2.671.116,4.675,4.675,0,0,1,.639.2.726.726,0,0,0,.29.116c.1,0,.1,0,.087-.131a3.368,3.368,0,0,1,.247-1.307A8.512,8.512,0,0,1,34.324,26.689Z" transform="translate(6.836 9.985)" fill="#fff"/>
          <path id="Path_6993" data-name="Path 6993" d="M33.169,26.514a5.212,5.212,0,0,1-.755-2.425,2.541,2.541,0,0,1,.857-2.178,6.185,6.185,0,0,0,.348,1.786,3.3,3.3,0,0,1,2.9-2.047,7.942,7.942,0,0,1,3.63.828,26.423,26.423,0,0,1,3.412,1.8A17.641,17.641,0,0,0,45.51,25.44a6.156,6.156,0,0,0,4.559.334,5.458,5.458,0,0,0-.29.668,2.207,2.207,0,0,1-1.452.915A24,24,0,0,1,40.82,28.6c-1.118,0-2.221-.261-3.339-.261a5.72,5.72,0,0,0-2.308.421,4.545,4.545,0,0,0-.523.276.711.711,0,0,1-.218.145c-.087,0-.1,0-.1-.116a3.876,3.876,0,0,0-.436-1.249C33.677,27.37,33.4,26.949,33.169,26.514Z" transform="translate(14.626 9.768)" fill="#fff"/>
          <path id="Path_6994" data-name="Path 6994" d="M26.724,40.88a16.13,16.13,0,0,0-.1,6.33c.145.857.29,1.379.29,1.379a18.192,18.192,0,0,0,4.152-2.642,2.468,2.468,0,0,0,2.367-.087h0a54.214,54.214,0,0,1,4.878,2.9,6.606,6.606,0,0,1,0-1.626c.319-2.207,1.191-5.43,1.191-5.43-3.02-.668-5.807,2.062-5.807,2.062a2.018,2.018,0,0,0-2.41.247h0a25.146,25.146,0,0,0-4.559-3.136Z" transform="translate(11.895 18.457)" fill="url(#linear-gradient-5)"/>
          <path id="Path_6995" data-name="Path 6995" d="M29.821,43.167a5.88,5.88,0,0,0-.218,1.975,2.468,2.468,0,0,0,2.367-.087,16.245,16.245,0,0,1,.276-2.134,2.018,2.018,0,0,0-2.41.247Z" transform="translate(13.357 19.248)" fill="#e7951f"/>
          <path id="Path_6996" data-name="Path 6996" d="M26.54,45.868c.145.857.29,1.379.29,1.379A18.192,18.192,0,0,0,30.983,44.6a2.468,2.468,0,0,0,2.367-.087h0a54.214,54.214,0,0,1,4.878,2.9,6.606,6.606,0,0,1,0-1.626A19.557,19.557,0,0,1,33.32,43.85a2.9,2.9,0,0,1-2.425.16,9.248,9.248,0,0,1-4.356,1.858Z" transform="translate(11.978 19.799)" opacity="0.4" fill="url(#linear-gradient-6)"/>
          <path id="Path_6997" data-name="Path 6997" d="M31.55,43.466s2.744-1.191,2.773-.523S31.55,43.466,31.55,43.466Z" transform="translate(14.241 19.298)" opacity="0.4" fill="url(#linear-gradient-7)"/>
          <path id="Path_6998" data-name="Path 6998" d="M31.52,43.8c.131,0,2.9.407,2.831,1.031S31.52,43.8,31.52,43.8Z" transform="translate(14.228 19.777)" opacity="0.4" fill="url(#linear-gradient-8)"/>
          <path id="Path_6999" data-name="Path 6999" d="M30.262,43.666s-2.279-1.9-2.671-1.321S30.262,43.666,30.262,43.666Z" transform="translate(12.437 19.069)" opacity="0.4" fill="url(#linear-gradient-9)"/>
          <path id="Path_7000" data-name="Path 7000" d="M30.178,43.765s-2.628-.232-2.628.334S30.178,43.765,30.178,43.765Z" transform="translate(12.434 19.739)" opacity="0.4" fill="url(#linear-gradient-10)"/>
          <circle id="Ellipse_393" data-name="Ellipse 393" cx="1.074" cy="1.074" r="1.074" transform="translate(43.338 66.959)" fill="url(#linear-gradient-11)"/>
          <circle id="Ellipse_394" data-name="Ellipse 394" cx="1.074" cy="1.074" r="1.074" transform="translate(43.338 71.184)" fill="url(#linear-gradient-11)"/>
        </g>
      </g>
    </g>
  </g>
</svg>
