<svg xmlns="http://www.w3.org/2000/svg" xmlns:xlink="http://www.w3.org/1999/xlink" width="81.275" height="81.275" viewBox="0 0 81.275 81.275">
  <defs>
    <clipPath id="clip-path">
      <circle id="Ellipse_391" data-name="Ellipse 391" cx="40.637" cy="40.637" r="40.637" fill="none"/>
    </clipPath>
    <linearGradient id="linear-gradient" x1="0.179" y1="0.187" x2="0.447" y2="0.576" gradientUnits="objectBoundingBox">
      <stop offset="0" stop-color="#d8eff8"/>
      <stop offset="1" stop-color="#c4ebff"/>
    </linearGradient>
    <linearGradient id="linear-gradient-2" x1="0.365" y1="0.081" x2="0.675" y2="0.808" gradientUnits="objectBoundingBox">
      <stop offset="0.02" stop-color="#3a3e44"/>
      <stop offset="1" stop-color="#252626"/>
    </linearGradient>
    <linearGradient id="linear-gradient-3" x1="0.54" y1="0.09" x2="0.143" y2="0.805" xlink:href="#linear-gradient-2"/>
    <linearGradient id="linear-gradient-4" x1="0.54" y1="-1.011" x2="0.429" y2="1.892" gradientUnits="objectBoundingBox">
      <stop offset="0" stop-color="#dd4806"/>
      <stop offset="1" stop-color="#ff6700"/>
    </linearGradient>
    <linearGradient id="linear-gradient-5" x1="-339.111" y1="0.492" x2="28.333" y2="0.492" gradientUnits="objectBoundingBox">
      <stop offset="0" stop-color="#f37706"/>
      <stop offset="1" stop-color="#ff6700"/>
    </linearGradient>
    <linearGradient id="linear-gradient-6" x1="0" y1="0.496" x2="0.995" y2="0.496" xlink:href="#linear-gradient-5"/>
    <linearGradient id="linear-gradient-7" x1="0.844" y1="0.039" x2="0.28" y2="0.699" xlink:href="#linear-gradient-5"/>
  </defs>
  <g id="Group_1335" data-name="Group 1335" transform="translate(-314.149 -145.176)">
    <g id="Character_cat-18" transform="translate(314.149 145.176)">
      <g id="Layer_10" data-name="Layer 10" transform="translate(0 0)">
        <circle id="Ellipse_390" data-name="Ellipse 390" cx="40.637" cy="40.637" r="40.637" fill="#d9efd5"/>
        <g id="Group_326" data-name="Group 326" clip-path="url(#clip-path)">
          <path id="Path_6936" data-name="Path 6936" d="M60.158,49.214a40.55,40.55,0,0,0-6.635-5.619c-.334-.218-.682-.421-1.016-.61a19.9,19.9,0,0,0-3.252-1.452l-.566-.189c-3.659-1.161-8-1.452-14.315-1.089a15.564,15.564,0,0,0-4.6,1.089A24.681,24.681,0,0,0,26.664,42.8a25.276,25.276,0,0,0-2.323,1.452,15.432,15.432,0,0,0-1.452,1.118A42.263,42.263,0,0,0,16.5,51.783,38.285,38.285,0,0,0,9.3,67.275H24.646c.131-1.278.508-1.945,1.263-1.583s1.452.7,2.367,1.06a65.42,65.42,0,0,0,10.889,3.3c1.728.363,3.6.711,5.619,1.016,1.452.2,2.9.407,4.472.566l2.018.2,2.9.218,1.989.116c3.615.174,7.55.218,11.833.1C68.26,67.783,67.955,57,60.158,49.214Z" transform="translate(4.188 18.109)" fill="url(#linear-gradient)"/>
          <path id="Path_6937" data-name="Path 6937" d="M42.318,41.3l-4.094,4.356-4.472-3.789-3.964,4.878S26.536,45.9,23.4,41.3A15.564,15.564,0,0,1,28,40.212C34.318,39.951,38.659,40.14,42.318,41.3Z" transform="translate(10.559 18.109)" fill="#abd2e1" opacity="0.5"/>
          <path id="Path_6938" data-name="Path 6938" d="M24.064,65.9c-.857-.363-1.641-.711-2.367-1.06-.537-2.9-2.5-16.333-3.078-20.326A30.677,30.677,0,0,1,22.453,42Z" transform="translate(8.399 18.963)" fill="url(#linear-gradient-2)"/>
          <path id="Path_6939" data-name="Path 6939" d="M40.072,42.555,38.838,71.462l-2.018-.2V41.06a19.9,19.9,0,0,1,3.252,1.5Z" transform="translate(16.623 18.539)" fill="url(#linear-gradient-3)"/>
          <path id="Path_6940" data-name="Path 6940" d="M48.842,43.58a33.625,33.625,0,0,1-29.182.668A25.278,25.278,0,0,1,21.983,42.8a24.681,24.681,0,0,1,3.107-1.452,15.564,15.564,0,0,1,4.6-1.089c6.316-.3,10.657,0,14.315,1.089l.566.189a19.9,19.9,0,0,1,3.252,1.452C48.16,43.158,48.508,43.362,48.842,43.58Z" transform="translate(8.869 18.124)" fill="#abd2e1" opacity="0.5"/>
          <path id="Path_6941" data-name="Path 6941" d="M38.436,39.05l-.319.944-.465,1.452a17.712,17.712,0,0,1-7.4.871c-1.713-.087-2.9-.276-2.9-.276l-1.1-2.178a40.216,40.216,0,0,0,7.956-.131c.8-.087,1.568-.189,2.279-.3S37.8,39.2,38.436,39.05Z" transform="translate(11.842 17.63)" fill="url(#linear-gradient-4)"/>
          <path id="Path_6942" data-name="Path 6942" d="M41.171,33.436a5.532,5.532,0,0,0-.131-.886S41.084,32.971,41.171,33.436Z" transform="translate(18.529 14.693)" fill="url(#linear-gradient-5)"/>
          <path id="Path_6943" data-name="Path 6943" d="M26.19,39.867a40.217,40.217,0,0,0,7.956-.131,40.649,40.649,0,0,0,4.356-.682S26.9,38.866,26.19,39.867Z" transform="translate(11.819 17.626)" fill="url(#linear-gradient-6)"/>
          <path id="Path_6944" data-name="Path 6944" d="M58.261,42.527c-.465.566-1.452-1.713-1.452-1.844.479,2.047-.1,4.762-.973,5.444-.523.407-.8-.319-.944-.973a7.578,7.578,0,0,0-.131-.871,3.509,3.509,0,0,0,.131.871c.189,2.207-.537,6.577-9.423,8.551a41.553,41.553,0,0,1-4.356.682,40.216,40.216,0,0,1-7.956.131c-8.261-.74-10.628-4.356-10.628-4.356s-.29,2.047-1.452,1.583-.6-3.238-.6-3.238-1.22,3.673-2.076,3.252-1.118-7.869-1.118-7.869-1.365,2.628-2.236,2.033.1-3.789.1-3.789c-1.452.682-2.526,4.356-3.5,2.9S13.109,39.8,13.109,39.8s-2.134.189-2.425-1.074,4.268-2.236,4.268-2.236a21.008,21.008,0,0,1,.886-12.442c-2.308-4.66-2.5-15.056-1.786-16.13a1.1,1.1,0,0,1,.189-.247c.7-.639,1.858.261,4.965,1.321,3.4,1.161,6.214,1.365,7,2.526a16.377,16.377,0,0,1,9.727-3.6,19.469,19.469,0,0,1,10.613,2.628c5.314-1.655,8.363-5.183,9.437-3.47a1.829,1.829,0,0,1,.174.377c.842,2.628-1.975,14.243-1.975,14.243a20.82,20.82,0,0,1-.29,9.437C58.566,37.474,58.755,42.019,58.261,42.527Z" transform="translate(4.807 2.974)" fill="url(#linear-gradient-7)"/>
          <path id="Path_6945" data-name="Path 6945" d="M20.055,20.837c-.61.871-.624,2.236,1.176,2.279s8.116-2.57,7.259-4.268S21.435,18.833,20.055,20.837Z" transform="translate(8.88 8.186)" fill="#9a360e"/>
          <path id="Path_6946" data-name="Path 6946" d="M33.552,18.476c-.392,1.045,2.279,2.076,4.617,2.9s3.267.1,3.121-.973S34.583,15.718,33.552,18.476Z" transform="translate(15.129 7.875)" fill="#9a360e"/>
          <path id="Path_6947" data-name="Path 6947" d="M21.075,12.4c-.624-.639-4.225-2.831-6.17-2.584,0,0-1.118,4.864,0,7.143,0,0-.29-1.06.682-1.205s2.163.915,2.163.915-1.975-1.887-1.089-2.613A18.627,18.627,0,0,1,21.075,12.4Z" transform="translate(6.496 4.412)" fill="#9a360e"/>
          <path id="Path_6948" data-name="Path 6948" d="M36.662,10.608c-1.176-.3,5.691-2.367,6.359-2.163S42,13.526,41.569,15.413a1.9,1.9,0,0,0,0,.218c-.348,1.713-.392-1.452-.973-.436,0,0,.377-3.746-1.031-3.5s-1.016,1.074-1.016,1.074S37.533,10.84,36.662,10.608Z" transform="translate(16.49 3.795)" fill="#9a360e"/>
          <path id="Path_6949" data-name="Path 6949" d="M22.22,14.912s1.452,3.949,7.724,3.818S36.317,15.7,36.317,15.7a9.045,9.045,0,0,0,4.617-2.759s-1.06-3.688-7-2.9a7.593,7.593,0,0,1,6.272,2.773s-3.5,3.7-12.5,2.468c0,0,2.149,1.728,7.985.566,0,0-1.9,3.063-7.346,2.279S22.22,14.912,22.22,14.912Z" transform="translate(10.026 4.47)" fill="#f36f14" opacity="0.3"/>
          <path id="Path_6950" data-name="Path 6950" d="M34.611,28.2c0,1.132-2.265,3.586-2.265,3.586-.537-.828-2.5-2.512-2.991-3.136h0c-.1-.131-.145-.218-.087-.232a11.615,11.615,0,0,1,5.328-.232Z" transform="translate(13.199 12.628)" fill="#723624"/>
          <path id="Path_6951" data-name="Path 6951" d="M34.6,28.139c0,1.132-2.265,3.586-2.265,3.586-.537-.828-2.5-2.512-2.991-3.136h0l-.087-.232s2.831.915,3.165,2.9a9.786,9.786,0,0,1,2.163-3.151Z" transform="translate(13.207 12.687)" fill="#723624" opacity="0.3"/>
          <path id="Path_6952" data-name="Path 6952" d="M26.22,32.465A24.972,24.972,0,0,0,40.245,32a9.147,9.147,0,0,1-7.477,5.1A6.562,6.562,0,0,1,26.22,32.465Z" transform="translate(11.833 14.445)" fill="#fff"/>
          <path id="Path_6953" data-name="Path 6953" d="M31.028,29.061A4.7,4.7,0,0,1,29.271,30.3a14.388,14.388,0,0,1-6.214.886c-1.292-.1-2.265-.348-2.468-.7-.581-1.045-.319-6.49,4.544-6.751S31.449,28.481,31.028,29.061Z" transform="translate(9.189 10.705)" fill="#fff"/>
          <path id="Path_6954" data-name="Path 6954" d="M31.144,28.962c.319.508-.581-5.982-5.953-5.648a5.459,5.459,0,0,0-4.66,7.1s.726-5.459,4.356-5.648S30.578,28.032,31.144,28.962Z" transform="translate(9.145 10.514)" fill="#633c22"/>
          <path id="Path_6955" data-name="Path 6955" d="M28.8,28.574a3.441,3.441,0,0,1-.174,1.1,9.5,9.5,0,0,1-2.12.639,15.825,15.825,0,0,1-2.308.261H22.41a3.572,3.572,0,0,1-.61-1.989,3.5,3.5,0,0,1,7,0Z" transform="translate(9.836 11.322)" fill="#837c2e"/>
          <path id="Path_6956" data-name="Path 6956" d="M31.07,28.689c.261.552-1.365-3.383-3.76-4.428s-7.259,0-6.853,5.88c0,0,1.452-4.109,3.935-4.675a6.548,6.548,0,0,1,6.679,3.223Z" transform="translate(9.218 10.787)" fill="#a9a19c" opacity="0.5"/>
          <path id="Path_6957" data-name="Path 6957" d="M23.834,26.312a.842.842,0,1,1-.523-.779.842.842,0,0,1,.523.779Z" transform="translate(9.994 11.494)" fill="#fff"/>
          <path id="Path_6958" data-name="Path 6958" d="M26.261,28.549a1.626,1.626,0,0,1-.319.973,15.825,15.825,0,0,1-2.308.261,1.568,1.568,0,0,1-.581-1.234,1.612,1.612,0,1,1,3.209,0Z" transform="translate(10.398 12.088)" fill="#091b1e"/>
          <path id="Path_6959" data-name="Path 6959" d="M42.8,28.382a2.207,2.207,0,0,1-.74.377,12.486,12.486,0,0,1-5.924.552,7.448,7.448,0,0,1-2.221-.682c-.45-.218.581-5.3,5.183-5.546S43.245,27.787,42.8,28.382Z" transform="translate(15.264 10.411)" fill="#fff"/>
          <path id="Path_6960" data-name="Path 6960" d="M33.74,28.681c0-.508.668-6.156,5.357-6.141s4.515,5.023,3.731,5.895c0,0-.755-4.588-3.572-4.588C35.569,23.847,33.74,28.681,33.74,28.681Z" transform="translate(15.231 10.17)" fill="#633c22"/>
          <path id="Path_6961" data-name="Path 6961" d="M41.524,27.291a3.093,3.093,0,0,1-.145.915,8.8,8.8,0,0,1-1.6.436,13.067,13.067,0,0,1-2.817.247,8.972,8.972,0,0,1-1.452-.131,3.092,3.092,0,0,1-.363-1.452,3.223,3.223,0,0,1,6.432,0Z" transform="translate(15.868 10.965)" fill="#837c2e"/>
          <path id="Path_6962" data-name="Path 6962" d="M33.856,28.724c.131.2,1.815-3.731,4.864-3.993s4.094,3.557,4.094,3.557A5.59,5.59,0,0,0,41.028,23.5c-2.207-1.829-5.154.769-6,1.96S33.536,28.245,33.856,28.724Z" transform="translate(15.246 10.317)" fill="#a9a19c" opacity="0.5"/>
          <path id="Path_6963" data-name="Path 6963" d="M37.03,25.5a.842.842,0,1,1-.835-.732.842.842,0,0,1,.835.732Z" transform="translate(15.963 11.176)" fill="#fff"/>
          <path id="Path_6964" data-name="Path 6964" d="M39.431,27.4a1.452,1.452,0,0,1-.131.639,13.066,13.066,0,0,1-2.817.247,1.452,1.452,0,0,1-.261-.886,1.612,1.612,0,1,1,3.209,0Z" transform="translate(16.349 11.569)" fill="#091b1e"/>
          <path id="Path_6965" data-name="Path 6965" d="M35.877,69.994l-.2.523c-2.018-.3-3.891-.653-5.619-1.016-.363-8.595.973-24.406.973-24.406L29.46,43.222l1.568-1.9,2.5,2.12-1.292,1.583Z" transform="translate(13.297 18.656)" fill="#18212d"/>
          <path id="Path_6966" data-name="Path 6966" d="M40.74,31.33a5.967,5.967,0,0,1,.247.944C40.842,31.809,40.755,31.388,40.74,31.33Z" transform="translate(18.394 14.142)" fill="#f37706" opacity="0.4"/>
          <path id="Path_6967" data-name="Path 6967" d="M58.261,42.375c-.465.566-1.452-1.713-1.452-1.844.479,2.047-.1,4.762-.973,5.444-.523.407-.8-.319-.944-.973.189,2.207-.537,6.577-9.423,8.551a41.553,41.553,0,0,1-4.356.682,40.216,40.216,0,0,1-7.956.131c-8.261-.74-10.628-4.356-10.628-4.356s-.29,2.047-1.452,1.583-.6-3.238-.6-3.238-1.22,3.673-2.076,3.252S17.29,43.74,17.29,43.74s-1.365,2.628-2.236,2.033.1-3.789.1-3.789c-1.452.682-2.526,4.356-3.5,2.9s1.452-5.241,1.452-5.241-2.134.189-2.425-1.074,4.268-2.236,4.268-2.236a21.008,21.008,0,0,1,.886-12.442c-2.308-4.66-2.5-15.056-1.786-16.13a1.1,1.1,0,0,1,.189-.247,32.725,32.725,0,0,0,.769,9.989,31.128,31.128,0,0,0,1.829,5.648S14.735,33.882,16.1,36.06a14.794,14.794,0,0,1,6.664,1.626c-.2,0-5.227-1.1-7.448.116s-2,3.4-1.234,3.484S16.1,40.081,16.1,40.081s-1.626,3.368-.523,4.036,2.134-3.136,2.134-3.136,0,8.363,1.031,8.363,2.018-3.833,2.018-3.833,0,4.806.523,4.675,1.452-2.207,1.452-2.207-.3,2.991,5.43,4.544,18.453,1.452,22.78-1.887c3.76-2.817,4.022-5.4,3.63-7.317.247.828.668,1.8,1.089,1.278.7-.871.755-4.457.232-5.807,0,0,1.452,2.381,1.7,1.612s-2.425-7.869-4.689-9.713a21.618,21.618,0,0,0,.581-10.163S56.272,11.2,55.953,6.95a1.83,1.83,0,0,1,.174.377c.871,2.6-1.945,14.214-1.945,14.214a20.82,20.82,0,0,1-.29,9.437C58.566,37.323,58.755,41.867,58.261,42.375Z" transform="translate(4.807 3.126)" fill="#f37706" opacity="0.4"/>
          <path id="Path_6968" data-name="Path 6968" d="M38.436,39.05l-.319.944a19.019,19.019,0,0,0-7.869,2.323c-1.713-.087-2.9-.276-2.9-.276l-1.1-2.178a40.216,40.216,0,0,0,7.956-.131c.8-.087,1.568-.189,2.279-.3S37.8,39.2,38.436,39.05Z" transform="translate(11.842 17.63)" fill="#f37706" opacity="0.4"/>
          <path id="Path_6969" data-name="Path 6969" d="M57.524,29.871l-.871-8.232a1.1,1.1,0,0,0-1.205-.987L42.381,22.031a1.1,1.1,0,0,0-.958,1.234l.276,2.25-5.517.537-.247-2.337a1.089,1.089,0,0,0-1.22-1L21.256,24.165a1.118,1.118,0,0,0-.987,1.234v.232c-1.641.537-6.824,2.207-7.724,2.642a1.307,1.307,0,0,0-.755.973,2.381,2.381,0,0,0,.784,1.844.653.653,0,0,0,.465.2.639.639,0,0,0,.508-.261.726.726,0,0,0,0-.987,2.207,2.207,0,0,1-.377-.552c.74-.348,5.023-1.757,7.259-2.483l.7,6.577a1.118,1.118,0,0,0,1.1,1h.116l13.444-1.452a1.06,1.06,0,0,0,.755-.421,1.045,1.045,0,0,0,.232-.813l-.189-2.033a5.343,5.343,0,0,1,5.517-.523l.232,2.163a1.118,1.118,0,0,0,1.089,1h.116l13.067-1.452A1.089,1.089,0,0,0,57.524,29.871Zm-35,3.281-.813-7.637L34.57,24.064l.755,7.724ZM36.428,28.3l-.1-.871,5.532-.465.087.813a6.853,6.853,0,0,0-5.517.523Zm7.259,2.759-.813-7.695L55.3,22.045l.813,7.695Z" transform="translate(5.312 9.315)" fill="#1e1005"/>
          <path id="Path_6970" data-name="Path 6970" d="M41.048,21.915l-4.138,6.5,3.775-.363,3.267-6.446Z" transform="translate(16.663 9.75)" fill="#fff" opacity="0.5"/>
          <path id="Path_6971" data-name="Path 6971" d="M26.308,23.5,22.17,30.526l3.572-1.176,3.63-6.49Z" transform="translate(10.003 10.315)" fill="#fff" opacity="0.5"/>
        </g>
      </g>
    </g>
  </g>
</svg>
