<svg xmlns="http://www.w3.org/2000/svg" xmlns:xlink="http://www.w3.org/1999/xlink" width="81.188" height="81.188" viewBox="0 0 81.188 81.188">
  <defs>
    <clipPath id="clip-path">
      <circle id="Ellipse_330" data-name="Ellipse 330" cx="40.594" cy="40.594" r="40.594" fill="none"/>
    </clipPath>
    <linearGradient id="linear-gradient" x1="10.557" y1="0.5" x2="11.557" y2="0.5" gradientUnits="objectBoundingBox">
      <stop offset="0" stop-color="#1d3034"/>
      <stop offset="1" stop-color="#162d33"/>
    </linearGradient>
    <linearGradient id="linear-gradient-2" x1="5.642" y1="0.502" x2="6.644" y2="0.502" xlink:href="#linear-gradient"/>
    <linearGradient id="linear-gradient-3" x1="13.894" y1="0.501" x2="14.893" y2="0.501" xlink:href="#linear-gradient"/>
    <linearGradient id="linear-gradient-4" x1="19.671" y1="0.5" x2="20.67" y2="0.5" xlink:href="#linear-gradient"/>
    <linearGradient id="linear-gradient-5" x1="13.294" y1="1.088" x2="12.932" y2="0.056" gradientUnits="objectBoundingBox">
      <stop offset="0.01" stop-color="#6b3e15"/>
      <stop offset="1" stop-color="#813305"/>
    </linearGradient>
    <linearGradient id="linear-gradient-6" x1="20.635" y1="0.918" x2="20.301" y2="0.181" xlink:href="#linear-gradient-5"/>
    <linearGradient id="linear-gradient-7" x1="12.077" y1="1.053" x2="12.011" y2="0.42" xlink:href="#linear-gradient"/>
    <linearGradient id="linear-gradient-8" x1="33.401" y1="0.024" x2="33.42" y2="0.718" gradientUnits="objectBoundingBox">
      <stop offset="0" stop-color="#025d72"/>
      <stop offset="1" stop-color="#1c6779"/>
    </linearGradient>
    <linearGradient id="linear-gradient-9" x1="191.492" y1="0.028" x2="192.068" y2="0.743" xlink:href="#linear-gradient-8"/>
    <linearGradient id="linear-gradient-10" x1="-1710.392" y1="116.303" x2="2997.175" y2="116.303" gradientUnits="objectBoundingBox">
      <stop offset="0" stop-color="#d6b89e"/>
      <stop offset="0.99" stop-color="#edcfb5"/>
    </linearGradient>
    <linearGradient id="linear-gradient-11" x1="16.396" y1="16.66" x2="2.445" y2="25.233" gradientUnits="objectBoundingBox">
      <stop offset="0" stop-color="#025d72"/>
      <stop offset="1" stop-color="#005967"/>
    </linearGradient>
    <linearGradient id="linear-gradient-12" x1="9.441" y1="7.852" x2="1.265" y2="15.6" xlink:href="#linear-gradient-11"/>
    <linearGradient id="linear-gradient-13" x1="1.453" y1="1.338" x2="0.854" y2="0.85" xlink:href="#linear-gradient-10"/>
    <linearGradient id="linear-gradient-14" x1="1.405" y1="3.876" x2="2.38" y2="3.876" xlink:href="#linear-gradient-10"/>
    <linearGradient id="linear-gradient-15" x1="1.456" y1="1.355" x2="0.877" y2="0.863" xlink:href="#linear-gradient-10"/>
  </defs>
  <g id="Group_1330" data-name="Group 1330" transform="translate(-309.475 103.616)">
    <g id="Character_cat-08" transform="translate(309.475 -103.616)">
      <g id="Layer_10" data-name="Layer 10" transform="translate(0 0)">
        <circle id="Ellipse_329" data-name="Ellipse 329" cx="40.594" cy="40.594" r="40.594" fill="#d9efd5"/>
        <g id="Group_273" data-name="Group 273" clip-path="url(#clip-path)">
          <path id="Path_2983" data-name="Path 2983" d="M3.55,62.824C4,64.987,7.194,73.248,12.914,73.6s10.163-7.492,10.163-7.492L20.333,90.54l.131.189a3.542,3.542,0,0,0,.726.668c1.975,1.365,5.895,1.336,10,.8l.973-.131c1.975-.29,3.964-.682,5.807-1.074a17.422,17.422,0,0,1,6.562,0A29.037,29.037,0,0,1,51.8,93.356h.145c3.47-6.054,3.949-18.685,3.949-18.685h4.82c4.472-2.41,5.807-8.711,4.022-16.057a34.22,34.22,0,0,0-1.945-5.59,25.625,25.625,0,0,0-7.985-9.9,31.636,31.636,0,0,0-3.31-2.192,25.7,25.7,0,0,0-4.327-1.916H46.8l-.769.131a50.655,50.655,0,0,1-12.37.363,14.474,14.474,0,0,1-2.149-.276c-.7-.1-.958-.16-1.452-.261A21.778,21.778,0,0,0,23.949,42.5l-.871.871a24.115,24.115,0,0,0-1.728,1.7c-4.806,5.154-5.532,13.575-9.481,14.62a2.788,2.788,0,0,1-3.049-.857,3.092,3.092,0,0,1-.508-.842Z" transform="translate(1.546 17.493)" fill="#333"/>
          <path id="Path_2984" data-name="Path 2984" d="M3.55,57.257C4,59.42,7.194,67.681,12.914,68.03s10.163-7.492,10.163-7.492L20.333,84.973l.131.189a3.542,3.542,0,0,0,.726.668,155.418,155.418,0,0,0,2.541-15.665,127.1,127.1,0,0,0,.508-18.874s-.29,3.121-.726,5.982-5.3,10.787-10.758,9.916-7.709-9.06-7.709-9.06A34.4,34.4,0,0,0,8.82,53.265a3.093,3.093,0,0,1-.508-.842Z" transform="translate(1.546 23.059)" opacity="0.2" fill="url(#linear-gradient)"/>
          <path id="Path_2985" data-name="Path 2985" d="M35.373,77.1c-.319,3.833-.479,4.239-.958,5.328-.232.523-.8,1.539-1.35,2.454a29.037,29.037,0,0,1,7.259,2.367h.145c3.47-6.054,3.949-18.685,3.949-18.685h4.82c4.472-2.41,5.807-8.711,4.022-16.057,0,4.457-.653,11.136-3.092,13.56-3.092,3.063-10.816,1.96-13.633,2.033-1.35,0-3.194.116-4.719.218l-2.976.174S35.707,73.257,35.373,77.1Z" transform="translate(12.973 23.611)" opacity="0.2" fill="url(#linear-gradient-2)"/>
          <path id="Path_2986" data-name="Path 2986" d="M18.742,54.4h0a90.436,90.436,0,0,1,9.437,16.464h0a9.916,9.916,0,0,1,.958-2.468h0c.45-.886,1.074-2.076,1.975-3.63C34.016,59.8,42.19,51.253,42.19,51.253l-.116-.334L40.23,45.227l6.316-1.539-1.176-2.671a25.7,25.7,0,0,0-4.283-2h-.363a49.014,49.014,0,0,1-15.288.218c-.494-.073-.958-.16-1.452-.261A22.272,22.272,0,0,0,17,43.369L22.43,46.1Z" transform="translate(7.623 17.493)" fill="#262626"/>
          <g id="Group_271" data-name="Group 271" transform="translate(25.538 56.506)" opacity="0.2">
            <path id="Path_2987" data-name="Path 2987" d="M31.43,44.343A28.253,28.253,0,0,0,42.159,43.2,31.637,31.637,0,0,0,38.849,41a25.7,25.7,0,0,0-4.283-2H34.2l-.769.131a38.852,38.852,0,0,0-2,5.212Z" transform="translate(-11.394 -39)" fill="url(#linear-gradient-3)"/>
            <path id="Path_2988" data-name="Path 2988" d="M17.63,42.548a33.944,33.944,0,0,0,7.041,2.076A41.335,41.335,0,0,0,27.3,39.557a14.475,14.475,0,0,1-2.149-.276c-.7-.1-.958-.16-1.452-.261a21.778,21.778,0,0,0-6.069,3.528Z" transform="translate(-17.63 -38.991)" fill="url(#linear-gradient-4)"/>
          </g>
          <path id="Path_2989" data-name="Path 2989" d="M22.3,51.667a58.163,58.163,0,0,0,1.06,8.813,49.858,49.858,0,0,0,2.41,8.348s1.132-2.9,3.383-9.176c.363-1.031.755-2.163,1.191-3.383a105.987,105.987,0,0,1,5.328-12.21c.508-1.016.987-1.931,1.452-2.729l1.234-2.279a48.913,48.913,0,0,1-15.273.218h0a13.183,13.183,0,0,0-.479,2.265h0c-.116.813-.232,1.829-.3,3.078a70.5,70.5,0,0,0,0,7.056Z" transform="translate(9.977 17.529)" fill="#f2f2f2"/>
          <path id="Path_2990" data-name="Path 2990" d="M22.27,44.611,23.9,42.3,25.1,43l2.991-2.192s3.325,3.586,3.47,3.513l1.742-.944.958,1.234,1.452-.552c.508-1.016.987-1.931,1.452-2.729L38.4,39.05a48.913,48.913,0,0,1-15.273.218h0a13.183,13.183,0,0,0-.479,2.265h0A18.469,18.469,0,0,0,22.27,44.611Z" transform="translate(10.005 17.529)" fill="#e5e5e5"/>
          <path id="Path_2991" data-name="Path 2991" d="M22.48,41.533h0l1.684.973.842.494L28,40.807l3.47,3.513,1.742-.944,3.8-2.047,1.234-2.279a51.134,51.134,0,0,1-9.815.7h-.769a40.5,40.5,0,0,1-4.689-.45Z" transform="translate(10.1 17.529)" fill="#efefef"/>
          <g id="Group_272" data-name="Group 272" transform="translate(26.337 68.339)" opacity="0.5">
            <path id="Path_2992" data-name="Path 2992" d="M31.1,54.293A45.908,45.908,0,0,0,25.37,64.63c.45-.886,1.074-2.076,1.975-3.63,2.9-4.965,11.078-13.517,11.078-13.517l-.116-.334a45.864,45.864,0,0,0-7.2,7.143Z" transform="translate(-14.931 -47.15)" opacity="0.4" fill="url(#linear-gradient-5)"/>
            <path id="Path_2993" data-name="Path 2993" d="M18.18,49.63a90.436,90.436,0,0,1,9.466,16.42h0a32.347,32.347,0,0,0-8.435-15.97l-1.016-.45Z" transform="translate(-18.18 -46.029)" opacity="0.4" fill="url(#linear-gradient-6)"/>
          </g>
          <path id="Path_2994" data-name="Path 2994" d="M41.538,51.25c.16.552,2.018,5.561-1.641,7.9s-9.727,2.759-9.727,2.759l.523,1.452S38.2,63.141,41.7,59.584,41.538,51.25,41.538,51.25Z" transform="translate(13.574 23.041)" opacity="0.2" fill="url(#linear-gradient-7)"/>
          <path id="Path_2995" data-name="Path 2995" d="M23,59.933a49.857,49.857,0,0,0,2.41,8.348s.915-2.294,2.715-7.332c.218-.581.436-1.191.668-1.844l-.639-14.736,1.292-1.118.6-.523L27.7,40.26l-2.991,2.192.348.407,1.292,1.452Z" transform="translate(10.335 18.075)" fill="#2d2d2d"/>
          <path id="Path_2996" data-name="Path 2996" d="M24.22,42.452l.348.407,2.468-1.916,1.916,2.308.6-.523L27.2,40.26Z" transform="translate(10.886 18.075)" opacity="0.4" fill="url(#linear-gradient-8)"/>
          <path id="Path_2997" data-name="Path 2997" d="M26.644,59.67c.218-.581.436-1.191.668-1.844L26.673,43.09a27.586,27.586,0,0,0-.232,5.227C26.426,50.088,26.586,56.81,26.644,59.67Z" transform="translate(11.873 19.354)" opacity="0.4" fill="url(#linear-gradient-9)"/>
          <path id="Path_2998" data-name="Path 2998" d="M26.58,39.747c1.22.973,4.777,3.63,4.777,3.63l3.8-2.047,1.234-2.279a51.134,51.134,0,0,1-9.815.7Z" transform="translate(11.952 17.529)" fill="#e2e2e2"/>
          <path id="Path_2999" data-name="Path 2999" d="M22.48,41.465h0l1.684.973,3.5-2.788a40.5,40.5,0,0,1-4.689-.45Z" transform="translate(10.1 17.596)" fill="#e2e2e2"/>
          <path id="Path_3000" data-name="Path 3000" d="M43.68,35.62v.189a.45.45,0,0,0,0-.189Z" transform="translate(19.679 15.979)" fill="url(#linear-gradient-10)"/>
          <path id="Path_3001" data-name="Path 3001" d="M23.677,39.4c-.421.2-1.292.508-2.367.929.755.218,1.539.407,2.381.566C23.677,39.937,23.677,39.4,23.677,39.4Z" transform="translate(9.571 17.687)" fill="url(#linear-gradient-11)"/>
          <path id="Path_3002" data-name="Path 3002" d="M31,41.36a28.834,28.834,0,0,0,5.532-1.278c-2.483-.653-4.486-.973-4.486-.973A14.818,14.818,0,0,0,31,41.36Z" transform="translate(13.949 17.556)" fill="url(#linear-gradient-12)"/>
          <path id="Path_3003" data-name="Path 3003" d="M57.947,42.67a7.68,7.68,0,0,1,.624,5.619c.2-1.365-2.555-3.659-2.9-3.935,1.452,1.22,1.336,5.3.711,5.372s-1.22-.682-2.25-.348a28.456,28.456,0,0,1-8.522,4.951,27.832,27.832,0,0,1-5.415,1.263h-.116a36.7,36.7,0,0,1-5.691.319,35.164,35.164,0,0,1-5.924-.624h-.189c-.769-.16-1.452-.334-2.192-.537-7.332-2.076-10.163-6.127-10.163-6.127a17.074,17.074,0,0,1-3.412.987c-.334-.16,2.323-3.789,2.4-3.905s-3.5.7-3.513,0,2-2.9,1.612-3.441-2.337,1.06-2.337,1.06c.566-4.588,5.807-6.9,5.807-6.9a28.848,28.848,0,0,1,.726-12.921A17.117,17.117,0,0,1,16.25,17.7a19.745,19.745,0,0,1,.7-5.807A27.585,27.585,0,0,1,18.239,8c2.178.769,6.3,6.33,7.477,5.807a16.086,16.086,0,0,1,11.194-1.452,29.037,29.037,0,0,0-7.9-1.191s2.468-2.25,8.435-1.22,7.1,3.586,7.1,3.586C50.02,10.308,52.909,10,53.693,9.989h.232l.886,16.624c4.922,12.326,4.457,17.422,4.457,17.422Z" transform="translate(4.759 3.499)" fill="url(#linear-gradient-13)"/>
          <path id="Path_3004" data-name="Path 3004" d="M30.021,21.631c-.45.247,1.452-3.063,3.935-3.615s5.343.508,5.59,2.047a13.633,13.633,0,0,0-9.524,1.568Z" transform="translate(13.477 7.958)" fill="#7d644c"/>
          <path id="Path_3005" data-name="Path 3005" d="M24.523,21.941a5.038,5.038,0,0,0-3.4-3.775c-2.381-.74-4.356,1.553-4.356,1.553a9.974,9.974,0,0,1,4.356.711,25.045,25.045,0,0,1,3.4,1.51Z" transform="translate(7.519 8.026)" fill="#7d644c"/>
          <path id="Path_3006" data-name="Path 3006" d="M37.571,15.6c-.726.973-7.68,5.314-16.348,2.9,0,0,4.559-2.9,5.357-4.559,0,0-6.983,1.757-7.521,3.528,0,0,2.4-4.98,6.475-6.127a20.108,20.108,0,0,0-4.356,4.007,34.278,34.278,0,0,1,6.649-2.584s-1.6,4.428-4.907,5.59a17.045,17.045,0,0,0,7.666-.261,20.834,20.834,0,0,0,6.983-2.5Z" transform="translate(8.554 5.012)" opacity="0.4" fill="url(#linear-gradient-14)"/>
          <path id="Path_3007" data-name="Path 3007" d="M36.328,12.431c-.421-.189,4.646-2.642,4.835-2.468a80.664,80.664,0,0,1-.218,8.769S38.927,13.578,36.328,12.431Z" transform="translate(16.345 4.382)" fill="#7d644c"/>
          <path id="Path_3008" data-name="Path 3008" d="M19.737,13.173s-4.356,6.867-3.949,5.212c.073-.3.1-8.043.624-8.711C16.718,9.209,19.65,12.548,19.737,13.173Z" transform="translate(7.064 4.235)" fill="#7d644c"/>
          <path id="Path_3009" data-name="Path 3009" d="M57.947,42.06a7.68,7.68,0,0,1,.624,5.619c.2-1.365-2.555-3.659-2.9-3.935,1.452,1.22,1.336,5.3.711,5.372s-1.22-.682-2.25-.348a28.456,28.456,0,0,1-8.522,4.951,27.832,27.832,0,0,1-5.415,1.263h-.116a36.7,36.7,0,0,1-5.691.319,35.164,35.164,0,0,1-5.924-.624h-.189c-.769-.16-1.452-.334-2.192-.537-7.332-2.076-10.163-6.127-10.163-6.127A17.074,17.074,0,0,1,12.5,49c-.334-.16,2.323-3.789,2.4-3.905s-3.5.7-3.513,0,2-2.9,1.612-3.441-2.337,1.06-2.337,1.06c.566-4.588,5.807-6.9,5.807-6.9A28.848,28.848,0,0,1,17.193,22.9a17.117,17.117,0,0,1-.944-5.807,19.745,19.745,0,0,1,.7-5.807,28.834,28.834,0,0,0,.363,7.158,19.441,19.441,0,0,0,.828,3.876,72.448,72.448,0,0,0-1.713,7.259,14.707,14.707,0,0,0,.624,6.679s-3.238.552-5.459,5.314c0,0,2.9-1.321,3.165-.9s-2.454,4.094-2.337,4.167a14.417,14.417,0,0,0,4.544-1.408c-.1.131-3.543,4.167-3.339,4.5s2.788-1.132,2.817-.944,7.927,7.506,14.881,7.39c0,0,11.02.958,16.174-2.294s6.49-5.488,8.116-4.123a7.259,7.259,0,0,0-.581-5.386s2.9.915,3.238,2.773c0-.2-.145-3.4-1.089-4.457a3.383,3.383,0,0,1,1.641.842c.436.581-2.236-10.671-4.7-13.589s-.145-6.577-.334-11.528a52.12,52.12,0,0,1-.1-7.259h.232L54.8,25.974C59.718,38.3,59.253,43.4,59.253,43.4Z" transform="translate(4.759 4.109)" opacity="0.5" fill="url(#linear-gradient-15)"/>
        </g>
        <path id="Path_3010" data-name="Path 3010" d="M29.61,30.257a1.887,1.887,0,0,0,.653.494,8.247,8.247,0,0,0,3.818.552,15.4,15.4,0,0,0,2.076-.29,10.54,10.54,0,0,0,5.633-2.5c.857-1.074-.828-6.054-5.807-5.459a6.432,6.432,0,0,0-2.512.857A8.711,8.711,0,0,0,29.7,30.068Z" transform="translate(13.321 10.279)" fill="#fff"/>
        <path id="Path_3011" data-name="Path 3011" d="M29.61,29.786a3.557,3.557,0,0,0,.653.668,8.247,8.247,0,0,0,3.818.552,1.931,1.931,0,0,0,.348-.16,3.891,3.891,0,0,0,2.091-3.426,3.847,3.847,0,0,0-3.136-3.789,8.711,8.711,0,0,0-3.775,6.156Z" transform="translate(13.321 10.561)" fill="#232323"/>
        <path id="Path_3012" data-name="Path 3012" d="M29.639,30.33a5.807,5.807,0,0,1,1.873-5.4c2.294-2.381,9.887-4.051,10.482,2.7A4.835,4.835,0,0,0,37.044,24.3a7.259,7.259,0,0,0-6.359,3.238,8.072,8.072,0,0,0-1.045,2.788Z" transform="translate(13.292 10.206)" fill="#633c22"/>
        <path id="Path_3013" data-name="Path 3013" d="M41.959,27.508c-.363-.842-7.593-6.693-12.326,2.555,0,0-.319-2.9,3.194-5.807,0,0,4.951-2.7,7.55.087A4.922,4.922,0,0,1,41.959,27.508Z" transform="translate(13.328 10.313)" fill="#a9a19c" opacity="0.5"/>
        <path id="Path_3014" data-name="Path 3014" d="M33,26.235a.755.755,0,1,0,.755-.755A.755.755,0,0,0,33,26.235Z" transform="translate(14.853 11.397)" fill="#fff"/>
        <path id="Path_3015" data-name="Path 3015" d="M17.126,28.215c.29,1.016,1.916,1.786,3.847,2.178a10.9,10.9,0,0,0,6.751-.436c.784-.479-1.452-4.239-5.575-5.343l-.523-.131c-2.178-.436-3.412,0-4.065.842h0a2.338,2.338,0,0,0-.465.929,3.673,3.673,0,0,0,.029,1.96Z" transform="translate(7.613 10.869)" fill="#fff"/>
        <path id="Path_3016" data-name="Path 3016" d="M17.127,28.328c.29,1.016,1.916,1.786,3.847,2.178A3.267,3.267,0,0,0,22.151,24.7a3.325,3.325,0,0,0-1.945-.639,3.267,3.267,0,0,0-2.642,1.35h0a2.9,2.9,0,0,0-.465.929,3.673,3.673,0,0,0,.029,1.989Z" transform="translate(7.612 10.755)" fill="#232323"/>
        <path id="Path_3017" data-name="Path 3017" d="M27.734,30.143c.8-.523,0-4.356-4.5-5.807s-6.562,1.307-6.243,3.513a3.572,3.572,0,0,1,4.094-2.483,7.8,7.8,0,0,1,6.649,4.777Z" transform="translate(7.604 10.697)" fill="#633c22"/>
        <path id="Path_3018" data-name="Path 3018" d="M27.729,29.995c-.174-.392-3.005-3.8-6.287-4.181-3.876-.45-4.356,1.844-4.239,2.613,0,0-1.016-1.655,1.176-3.412s5.648-.16,7.8,1.829S27.729,29.995,27.729,29.995Z" transform="translate(7.609 10.846)" fill="#a9a19c" opacity="0.5"/>
        <path id="Path_3019" data-name="Path 3019" d="M20.059,26.6a.755.755,0,1,0,1.452,0,.755.755,0,1,0-1.452,0Z" transform="translate(8.993 11.468)" fill="#fff"/>
        <path id="Path_3020" data-name="Path 3020" d="M31.762,33.911a22.141,22.141,0,0,1-3.47,3.63,32.173,32.173,0,0,1-3.862-3.586h0c0-.1,4.181-1.931,7.259,0Z" transform="translate(10.981 14.828)" fill="#7d644c"/>
        <path id="Path_3021" data-name="Path 3021" d="M31.762,33.65a22.141,22.141,0,0,1-3.47,3.63,32.173,32.173,0,0,1-3.862-3.586,5.807,5.807,0,0,1,3.8,2.9s1.757-2.9,3.47-2.9Z" transform="translate(10.981 15.089)" fill="#723624" opacity="0.3"/>
        <path id="Path_3022" data-name="Path 3022" d="M28.9,38.269a10.163,10.163,0,0,1-5.88-1.887.237.237,0,1,1,.363-.3,9.219,9.219,0,0,0,10.424.145.247.247,0,0,1,.334,0,.232.232,0,0,1,0,.334A8.711,8.711,0,0,1,28.9,38.269Z" transform="translate(10.317 16.147)" fill="#633c22"/>
        <ellipse id="Ellipse_331" data-name="Ellipse 331" cx="1.249" cy="0.392" rx="1.249" ry="0.392" transform="translate(18.656 33.393)" fill="#fff"/>
        <path id="Path_3023" data-name="Path 3023" d="M38.361,22.8a14.78,14.78,0,0,1-4.138,1.031A14.809,14.809,0,0,1,30.1,22.8c-3.513-1.161-12.341-1.9-17.93-.116l.174,3.092a1.161,1.161,0,0,1,1.35.9c.334,1.118,1.1,5.72,2.541,7.521,1.757,2.236,5.575,2.323,8.145,2.207,3.47-.145,5.807-1.684,6.708-4.356a31.563,31.563,0,0,1,2.134-5.517,1.452,1.452,0,0,1,2.018,0,31.563,31.563,0,0,1,2.134,5.546c.973,2.613,3.238,4.152,6.708,4.356,2.57.116,6.388,0,8.145-2.207,1.452-1.8,2.207-6.4,2.541-7.521a1.161,1.161,0,0,1,1.35-.9l.174-3.092C50.7,20.9,41.875,21.638,38.361,22.8ZM13.2,24.135c0-.218.566-.392,1.263-.392s1.249.174,1.249.392-.566.407-1.249.407-1.263-.189-1.263-.407Zm16.333,7.971a5.807,5.807,0,0,1-4.849,2.9,11.687,11.687,0,0,1-6.562-1c-1.249-.74-1.858-3.092-2.149-4.515s-.828-4.472.639-5.473,5.1-1.074,7.521-.929c1.829.116,5.807.6,6.519,2S30.289,30.7,29.534,32.105Zm22.954-2.57c-.3,1.452-.9,3.775-2.149,4.515a11.746,11.746,0,0,1-6.577,1,5.807,5.807,0,0,1-4.835-2.9C38.173,30.7,37.069,26.6,37.81,25.18s4.689-1.887,6.519-2c2.425-.145,6.069-.073,7.521.929S52.793,28.127,52.488,29.536Zm1.452-4.994c-.682,0-1.249-.189-1.249-.407s.566-.392,1.249-.392,1.263.174,1.263.392-.508.407-1.176.407Z" transform="translate(5.441 9.65)" fill="#323232"/>
        <ellipse id="Ellipse_332" data-name="Ellipse 332" cx="1.249" cy="0.392" rx="1.249" ry="0.392" transform="translate(58.19 33.393)" fill="#fff"/>
      </g>
    </g>
  </g>
</svg>
