<svg xmlns="http://www.w3.org/2000/svg" xmlns:xlink="http://www.w3.org/1999/xlink" width="81.275" height="81.275" viewBox="0 0 81.275 81.275">
  <defs>
    <clipPath id="clip-path">
      <circle id="Ellipse_383" data-name="Ellipse 383" cx="40.637" cy="40.637" r="40.637" fill="none"/>
    </clipPath>
    <linearGradient id="linear-gradient" x1="1.98" y1="0.39" x2="2.066" y2="1.099" gradientUnits="objectBoundingBox">
      <stop offset="0" stop-color="#d8eff8"/>
      <stop offset="1" stop-color="#c4ebff"/>
    </linearGradient>
    <linearGradient id="linear-gradient-2" x1="2.324" y1="0.405" x2="2.423" y2="1.102" xlink:href="#linear-gradient"/>
    <linearGradient id="linear-gradient-3" x1="1.896" y1="1.306" x2="1.728" y2="0.262" gradientUnits="objectBoundingBox">
      <stop offset="0" stop-color="#004c6b"/>
      <stop offset="1" stop-color="#005967"/>
    </linearGradient>
    <linearGradient id="linear-gradient-4" x1="1.058" y1="0.739" x2="1.509" y2="1.176" gradientUnits="objectBoundingBox">
      <stop offset="0" stop-color="#025d72"/>
      <stop offset="1" stop-color="#005967"/>
    </linearGradient>
    <linearGradient id="linear-gradient-5" x1="7.068" y1="1.333" x2="5.078" y2="1.005" gradientUnits="objectBoundingBox">
      <stop offset="0" stop-color="#0b4950"/>
      <stop offset="0.99" stop-color="#005260"/>
    </linearGradient>
    <linearGradient id="linear-gradient-6" x1="2.208" y1="1.158" x2="1.811" y2="0.962" xlink:href="#linear-gradient-5"/>
    <linearGradient id="linear-gradient-7" x1="2.347" y1="1.666" x2="2.179" y2="1.518" xlink:href="#linear-gradient-5"/>
    <linearGradient id="linear-gradient-8" x1="-161.605" y1="-74.788" x2="-161.842" y2="-74.087" gradientUnits="objectBoundingBox">
      <stop offset="0" stop-color="#f6c326"/>
      <stop offset="1" stop-color="#f8931c"/>
    </linearGradient>
    <linearGradient id="linear-gradient-9" x1="-193.363" y1="-159.33" x2="-192.355" y2="-159.33" xlink:href="#linear-gradient-8"/>
    <linearGradient id="linear-gradient-10" x1="-794.8" y1="-1343.191" x2="-793.906" y2="-1343.191" xlink:href="#linear-gradient-8"/>
    <linearGradient id="linear-gradient-11" x1="-852.467" y1="-455.161" x2="-851.32" y2="-455.161" xlink:href="#linear-gradient-8"/>
    <linearGradient id="linear-gradient-12" x1="-917.817" y1="-402.427" x2="-916.597" y2="-402.427" xlink:href="#linear-gradient-8"/>
    <linearGradient id="linear-gradient-13" x1="-850.427" y1="-1159.693" x2="-849.485" y2="-1159.693" xlink:href="#linear-gradient-8"/>
    <linearGradient id="linear-gradient-14" x1="-5042.59" y1="65.533" x2="5242.88" y2="65.533" gradientUnits="objectBoundingBox">
      <stop offset="0" stop-color="#d6b89e"/>
      <stop offset="0.99" stop-color="#edcfb5"/>
    </linearGradient>
    <linearGradient id="linear-gradient-15" x1="13.691" y1="10.382" x2="-0.14" y2="19.009" xlink:href="#linear-gradient-4"/>
    <linearGradient id="linear-gradient-16" x1="8.38" y1="3.722" x2="0.164" y2="11.373" xlink:href="#linear-gradient-4"/>
    <linearGradient id="linear-gradient-17" x1="1.334" y1="1.146" x2="0.733" y2="0.651" xlink:href="#linear-gradient-14"/>
    <linearGradient id="linear-gradient-18" x1="-57.551" y1="-1.813" x2="-57.766" y2="-0.96" gradientUnits="objectBoundingBox">
      <stop offset="0" stop-color="#94683f"/>
      <stop offset="1" stop-color="#a37f60"/>
    </linearGradient>
    <linearGradient id="linear-gradient-19" x1="13.512" y1="-17.561" x2="12.592" y2="-17.488" gradientUnits="objectBoundingBox">
      <stop offset="0" stop-color="#53bde9"/>
      <stop offset="1" stop-color="#057ba9"/>
    </linearGradient>
    <linearGradient id="linear-gradient-20" x1="-54.61" y1="-2.708" x2="-53.531" y2="-2.251" gradientUnits="objectBoundingBox">
      <stop offset="0" stop-color="#392423"/>
      <stop offset="1" stop-color="#613b1f"/>
    </linearGradient>
    <linearGradient id="linear-gradient-21" x1="-2.029" y1="13.459" x2="-2.236" y2="14.316" xlink:href="#linear-gradient-18"/>
    <linearGradient id="linear-gradient-22" x1="3.861" y1="3.414" x2="2.844" y2="2.617" xlink:href="#linear-gradient-19"/>
    <linearGradient id="linear-gradient-23" x1="-2.423" y1="21.832" x2="-1.373" y2="22.335" xlink:href="#linear-gradient-20"/>
    <linearGradient id="linear-gradient-24" x1="1.13" y1="2.673" x2="2.111" y2="2.673" xlink:href="#linear-gradient-14"/>
    <linearGradient id="linear-gradient-25" x1="5.042" y1="1.547" x2="4.54" y2="2.42" gradientUnits="objectBoundingBox">
      <stop offset="0" stop-color="#fb998f"/>
      <stop offset="1" stop-color="#fb7a6f"/>
    </linearGradient>
    <linearGradient id="linear-gradient-26" x1="5.153" y1="1.961" x2="5.807" y2="2.627" xlink:href="#linear-gradient-25"/>
    <linearGradient id="linear-gradient-27" x1="1.336" y1="1.151" x2="0.757" y2="0.663" xlink:href="#linear-gradient-14"/>
  </defs>
  <g id="Group_1333" data-name="Group 1333" transform="translate(-204.861 4.824)">
    <g id="Character_cat-16" transform="translate(204.861 -4.824)">
      <g id="Layer_10" data-name="Layer 10" transform="translate(0 0)">
        <circle id="Ellipse_382" data-name="Ellipse 382" cx="40.637" cy="40.637" r="40.637" transform="translate(0)" fill="#ceeaef"/>
        <g id="Group_323" data-name="Group 323" transform="translate(0)" clip-path="url(#clip-path)">
          <path id="Path_6823" data-name="Path 6823" d="M35.309,102.183l-14.881,3.586-.479-.174-2.468-.886a31.272,31.272,0,0,0,1.844-3.383,63.881,63.881,0,0,0,5.357-18.874c-.8-.189-1.524-.392-2.163-.581l-.363-.116-.842-.276-.174-.073-.232-.087-.348-.131c-.407-.145-.711-.276-.958-.377.16-1.06.3-2.091.436-3.049l1.452-4.239a15.143,15.143,0,0,0,4.051.581c0-.407,0-.8,0-1.205v-.624c0-.639.073-1.307.1-1.96v-2.7h0V42.251a1.756,1.756,0,0,1,0-.276v-.769a1.453,1.453,0,0,0,0-.247h0v-.784h.2a37.1,37.1,0,0,0,6.243.465,41.306,41.306,0,0,0,6.17-.479h.131l-.218.552c-2.149,5.807-6.62,18.409-7.375,26.366A78.094,78.094,0,0,0,31.94,83.614l.348,2.25C33.537,94.488,35.309,102.183,35.309,102.183Z" transform="translate(7.855 18.132)" fill="url(#linear-gradient)"/>
          <path id="Path_6824" data-name="Path 6824" d="M35.309,102.17l-14.881,3.586-.479-.174L17.48,104.7a31.273,31.273,0,0,0,1.844-3.383,63.766,63.766,0,0,0,5.357-18.874A33.887,33.887,0,0,1,19.556,80.8c.16-1.06.3-2.091.436-3.049l1.452-4.225a15.579,15.579,0,0,0,4.051.566c.769-12.849.232-28.834,0-33.9h.189c.552,4.08,1.045,16.871,1.147,22.678a92.919,92.919,0,0,1-.436,14.519,6.577,6.577,0,0,0,2,6.083l3.731,2.367C33.537,94.475,35.309,102.17,35.309,102.17Z" transform="translate(7.855 18.145)" fill="url(#linear-gradient-2)"/>
          <path id="Path_6825" data-name="Path 6825" d="M29.575,82.615a63.881,63.881,0,0,1-5.357,18.874,31.272,31.272,0,0,1-1.844,3.383l-1.336-.479c-2.294-1.452-6.214-3.876-6.214-3.876l.958-2.192,4.951-17.016L6.65,79.29l6.316-18.584s4.994-12.413,7.172-15.753a13.88,13.88,0,0,1,5.3-4.065c.552-.276,1.1-.537,1.626-.769l.726-.319c.813.2,1.67.377,2.584.537h0v.784h0a1.452,1.452,0,0,1,0,.247v.769a1.757,1.757,0,0,0,0,.276v25.32h0v2.7a12.577,12.577,0,0,1-.1,1.96v1.829a15.143,15.143,0,0,1-4.051-.581l-1.452,4.239-.479,1.452-.465,1.452h.2l.3.131c.247.1.552.232.958.377l.348.131.232.087.218.073.842.276.363.116C28.05,82.194,28.776,82.426,29.575,82.615Z" transform="translate(2.961 17.969)" fill="url(#linear-gradient-3)"/>
          <path id="Path_6826" data-name="Path 6826" d="M41.95,83.953a54.153,54.153,0,0,1-10.657.16,48.781,48.781,0,0,1-7.114-1.161c-.8-.189-1.524-.392-2.163-.581l-.363-.116-.842-.276-.174-.1L20.4,81.79l-.348-.131c-.407-.145-.711-.276-.958-.377l-.3-.131h-.2l.465-1.452.479-1.452,1.452-4.239a15.143,15.143,0,0,0,4.051.581,20.937,20.937,0,0,0,3.833-.247,48.289,48.289,0,0,1,.479-6.533h0C30.8,58.255,35.039,46.873,37.377,41.2l.218-.537h.131a30.489,30.489,0,0,0,5.807-1.539l1.22.3,1.307.363a19.745,19.745,0,0,1,5.807,2.584c4.007,2.9,5.807,5.807,5.953,14.911v3.063C57.5,69.58,54.712,82.5,41.95,83.953Z" transform="translate(8.356 17.662)" fill="url(#linear-gradient-4)"/>
          <path id="Path_6827" data-name="Path 6827" d="M20.179,47.359l1.975-3.7-2.9-.958,2.12-2.6.726-.319c.813.2,1.67.377,2.584.537V41.1h0c.2,3.107.276,7.463.3,11.731v.407c0,6.766-.073,13.27-.087,14.359v.145h0C23.852,63.024,20.179,47.359,20.179,47.359Z" transform="translate(8.655 17.96)" fill="url(#linear-gradient-5)"/>
          <path id="Path_6828" data-name="Path 6828" d="M36.279,44.573,39.6,46.214S28.9,61.139,26,67.818c1.452-9.858,5.967-21.691,8.247-27.15A31.36,31.36,0,0,0,40.228,39.1l1.22.3c1,1.1,2.236,2.41,2.236,2.41Z" transform="translate(11.705 17.653)" fill="url(#linear-gradient-6)"/>
          <path id="Path_6829" data-name="Path 6829" d="M25.62,68.544c1.031-.276,8.711-1.205,13.067-6.867a26.947,26.947,0,0,0,5.285-9.756s.276,8.145-5.619,12.384A24.115,24.115,0,0,1,25.62,68.544Z" transform="translate(11.533 23.446)" fill="url(#linear-gradient-7)"/>
          <path id="Path_6830" data-name="Path 6830" d="M31.462,41.77a4.675,4.675,0,0,0-.392,1.786v.407a5.647,5.647,0,0,0,1.35-.407.7.7,0,0,0,.682.1h0a15.476,15.476,0,0,1,1.249,1.118,3.062,3.062,0,0,1,.116-.465,13.272,13.272,0,0,1,.653-1.452,2.221,2.221,0,0,0-1.815.261.6.6,0,0,0-.711,0h0a8.116,8.116,0,0,0-1.132-1.35Z" transform="translate(13.995 18.859)" fill="url(#linear-gradient-8)"/>
          <path id="Path_6831" data-name="Path 6831" d="M32.189,42.56A1.844,1.844,0,0,0,32,43.2a.7.7,0,0,0,.682.1,5.446,5.446,0,0,1,.2-.6.6.6,0,0,0-.711,0Z" transform="translate(14.416 19.216)" fill="#e7951f"/>
          <path id="Path_6832" data-name="Path 6832" d="M31.07,43.059v.407a5.647,5.647,0,0,0,1.35-.407.7.7,0,0,0,.682.1h0a15.476,15.476,0,0,1,1.249,1.118,3.062,3.062,0,0,1,.116-.465,6.794,6.794,0,0,1-1.307-.842.857.857,0,0,1-.711-.1A2.773,2.773,0,0,1,31.07,43.059Z" transform="translate(13.995 19.356)" opacity="0.4" fill="url(#linear-gradient-9)"/>
          <path id="Path_6833" data-name="Path 6833" d="M32.64,42.766s.857-.189.828,0S32.64,42.766,32.64,42.766Z" transform="translate(14.705 19.272)" opacity="0.4" fill="url(#linear-gradient-10)"/>
          <path id="Path_6834" data-name="Path 6834" d="M32.59,42.89s.828.29.769.465S32.59,42.89,32.59,42.89Z" transform="translate(14.682 19.365)" opacity="0.4" fill="url(#linear-gradient-11)"/>
          <path id="Path_6835" data-name="Path 6835" d="M32.222,42.783s-.552-.682-.7-.537S32.222,42.783,32.222,42.783Z" transform="translate(14.194 19.065)" opacity="0.4" fill="url(#linear-gradient-12)"/>
          <path id="Path_6836" data-name="Path 6836" d="M32.24,42.78s-.74-.218-.769,0S32.24,42.78,32.24,42.78Z" transform="translate(14.176 19.272)" opacity="0.4" fill="url(#linear-gradient-13)"/>
          <path id="Path_6837" data-name="Path 6837" d="M44.92,35.32a1.453,1.453,0,0,1,0,.218A1.206,1.206,0,0,0,44.92,35.32Z" transform="translate(20.254 15.945)" fill="url(#linear-gradient-14)"/>
          <path id="Path_6838" data-name="Path 6838" d="M23.492,40c-.45.218-1.379.566-2.512,1.06.813.2,1.67.377,2.584.537C23.521,40.6,23.492,40,23.492,40Z" transform="translate(9.436 18.06)" fill="url(#linear-gradient-15)"/>
          <path id="Path_6839" data-name="Path 6839" d="M31.36,41.894a32.072,32.072,0,0,0,5.924-1.539c-2.686-.624-4.849-.915-4.849-.915C32.188,39.948,31.825,40.79,31.36,41.894Z" transform="translate(14.127 17.807)" fill="url(#linear-gradient-16)"/>
          <path id="Path_6840" data-name="Path 6840" d="M60.13,42.539a8.334,8.334,0,0,1,.842,6.025c.174-1.452-2.9-3.862-3.238-4.152,1.626,1.263,1.6,5.662.944,5.807s-1.35-.682-2.439-.29A30.925,30.925,0,0,1,47.209,55.5,30.155,30.155,0,0,1,41.4,56.956h-.116a40.652,40.652,0,0,1-6.127.479,38.532,38.532,0,0,1-6.374-.494h-.2c-.828-.145-1.626-.319-2.367-.508-7.956-2.018-11.063-6.3-11.063-6.3a18.539,18.539,0,0,1-3.644,1.176c-.363-.16,2.381-4.152,2.468-4.268s-3.746.842-3.789.145,2.076-3.121,1.641-3.76-2.5,1.22-2.5,1.22c.479-4.951,6-7.593,6-7.593A31.07,31.07,0,0,1,15.762,23.2s-.755-1.292-1.191-6.214a21.124,21.124,0,0,1,.566-6.359A30.01,30.01,0,0,1,16.371,6.49c2.381.74,7,6.548,8.232,5.938C31.108,9.176,36.03,10.41,36.6,10.57a31.317,31.317,0,0,0-8.522-1.031S30.716,7,37.1,7.942s7.724,3.644,7.724,3.644c5.807-3.63,8.9-4.065,9.742-4.094h.247L56.268,25.35c5.662,13.067,5.314,18.54,5.314,18.54Z" transform="translate(4.172 2.918)" fill="url(#linear-gradient-17)"/>
          <path id="Path_6841" data-name="Path 6841" d="M29.753,20.726c-.479.29,1.452-3.325,4.123-3.993s5.807.377,6.069,2.033a14.678,14.678,0,0,0-10.192,1.96Z" transform="translate(13.367 7.454)" fill="#7d644c"/>
          <path id="Path_6842" data-name="Path 6842" d="M23.89,21.214a5.43,5.43,0,0,0-3.746-3.964c-2.6-.726-4.7,1.815-4.7,1.815a10.555,10.555,0,0,1,4.66.624,27.092,27.092,0,0,1,3.789,1.524Z" transform="translate(6.933 7.721)" fill="#7d644c"/>
          <path id="Path_6843" data-name="Path 6843" d="M29.26,29.593s.232-6.359,5.459-7.724a4.791,4.791,0,0,1,6.04,6.185C39.6,31.219,34.109,34.471,29.26,29.593Z" transform="translate(13.178 9.752)" opacity="0.4" fill="url(#linear-gradient-18)"/>
          <path id="Path_6844" data-name="Path 6844" d="M29.31,28.907v.2h0l.131.1a7.535,7.535,0,0,0,3.717,1.452,7.825,7.825,0,0,0,3.121-.3,8.217,8.217,0,0,0,1.568-.668,7.114,7.114,0,0,0,3.194-3.862h0l.145-.61a6.824,6.824,0,0,0-1.8-1.539,6.127,6.127,0,0,0-2.294-.828,6,6,0,0,0-2.642.174A4.922,4.922,0,0,0,33,23.709a9.132,9.132,0,0,0-2.686,2.962Z" transform="translate(13.2 10.278)" fill="#fff"/>
          <path id="Path_6845" data-name="Path 6845" d="M37.977,29.1a.331.331,0,0,1-.1.276l-.3.16a8.479,8.479,0,0,1-1.263.508,8.972,8.972,0,0,1-1.829.348A7.492,7.492,0,0,1,29.832,29.2c-.29-.189-.479-.334-.552-.392h0a12.645,12.645,0,0,1,.857-1.916,9.655,9.655,0,0,1,2.9-3.441,4.7,4.7,0,0,1,2.134.218,4.965,4.965,0,0,1,1.452.813A4.2,4.2,0,0,1,37.977,29.1Z" transform="translate(13.172 10.565)" fill="url(#linear-gradient-19)"/>
          <path id="Path_6846" data-name="Path 6846" d="M34.888,28.678a2.5,2.5,0,0,1-.566.9,7.492,7.492,0,0,1-4.646-1.191,2.352,2.352,0,0,1,.073-1.452,2.715,2.715,0,0,1,3.426-1.568,2.57,2.57,0,0,1,1.713,3.31Z" transform="translate(13.328 11.378)" fill="#151f23"/>
          <path id="Path_6847" data-name="Path 6847" d="M34.263,22.5a6.5,6.5,0,0,1,4.7.813l.987-.523-.6.784a5.154,5.154,0,0,1,.508.392l.973-.392-.537.769a4.617,4.617,0,0,1,.377.392l1.132-.392L41.029,26a7.971,7.971,0,0,0-1.975-1.786,5.807,5.807,0,0,0-6.214.174,22.62,22.62,0,0,0-3.6,4.864S29.792,23.4,34.263,22.5Z" transform="translate(13.169 10.092)" fill="url(#linear-gradient-20)"/>
          <path id="Path_6848" data-name="Path 6848" d="M32.536,25a1.118,1.118,0,0,0,1.292.842,1.016,1.016,0,0,0,.886-1.205,1.118,1.118,0,0,0-1.292-.842A1.016,1.016,0,0,0,32.536,25Z" transform="translate(14.649 10.729)" fill="#fff"/>
          <path id="Path_6849" data-name="Path 6849" d="M29.26,29.053a13.328,13.328,0,0,1,5.43-4.515c3.194-1.234,6.243,1.263,6.33,1.336a9.031,9.031,0,0,0-1.626-2.163,6.141,6.141,0,0,0-2.279-.828,5.967,5.967,0,0,0-2.642.174,7.927,7.927,0,0,0-4.356,4.123,14,14,0,0,0-.857,1.873Z" transform="translate(13.178 10.292)" fill="#a9a19c"/>
          <path id="Path_6850" data-name="Path 6850" d="M26.255,29.224s-1.089-6.446-6.591-7.361-6.649,4.356-5.328,6.838a7.041,7.041,0,0,0,11.92.523Z" transform="translate(6.208 9.817)" opacity="0.4" fill="url(#linear-gradient-21)"/>
          <path id="Path_6851" data-name="Path 6851" d="M26.339,28.707A7.114,7.114,0,0,1,21.708,30.8a8.116,8.116,0,0,1-2.381-.174,7.128,7.128,0,0,1-1.031-.276,7.637,7.637,0,0,1-2.033-1.06,7.811,7.811,0,0,1-2.381-2.831h0c-.131-.377-.232-.61-.232-.61a6.766,6.766,0,0,1,1.626-1.728A6.083,6.083,0,0,1,17.5,23.045a6.533,6.533,0,0,1,2.729,0,5.633,5.633,0,0,1,1.8.682,10.7,10.7,0,0,1,3.18,3.121,14.083,14.083,0,0,1,1.132,1.858Z" transform="translate(6.124 10.333)" fill="#fff"/>
          <path id="Path_6852" data-name="Path 6852" d="M23.315,27.636a3.847,3.847,0,0,1-2.207,2.991,7.869,7.869,0,0,1-1.641,0,6.591,6.591,0,0,1-.74-.131A7.129,7.129,0,0,1,17.7,30.22a7.637,7.637,0,0,1-2.033-1.06,3.455,3.455,0,0,1-.653-2.541,4.167,4.167,0,0,1,8.247,1.016Z" transform="translate(6.724 10.504)" fill="url(#linear-gradient-22)"/>
          <path id="Path_6853" data-name="Path 6853" d="M20.573,22.5A6.417,6.417,0,0,0,15.9,23.758l-1.074-.508.711.74c-.174.145-.334.3-.479.45l-1.031-.319.653.74a3.89,3.89,0,0,0-.334.436l-1.205-.3L14.156,26.6a7.855,7.855,0,0,1,1.684-1.9A5.909,5.909,0,0,1,22.2,24.31a25.1,25.1,0,0,1,4.356,4.631S25.248,23,20.573,22.5Z" transform="translate(5.894 10.128)" fill="url(#linear-gradient-23)"/>
          <path id="Path_6854" data-name="Path 6854" d="M20.494,25.334a1.045,1.045,0,0,1-1.147.944,1.06,1.06,0,0,1-1.016-1.1,1.089,1.089,0,0,1,2.163.16Z" transform="translate(8.239 10.948)" fill="#fff"/>
          <path id="Path_6855" data-name="Path 6855" d="M26.253,28.707a14.417,14.417,0,0,0-6.141-4.21,6.9,6.9,0,0,0-6.272,1.916A9.422,9.422,0,0,1,15.2,24.076a6.011,6.011,0,0,1,2.207-1.031,6.548,6.548,0,0,1,2.729,0,8.566,8.566,0,0,1,4.98,3.8,14.083,14.083,0,0,1,1.132,1.858Z" transform="translate(6.21 10.333)" fill="#a9a19c"/>
          <path id="Path_6856" data-name="Path 6856" d="M20.452,28a2.367,2.367,0,0,1-1.118,1.728,6.593,6.593,0,0,1-.74-.131,7.128,7.128,0,0,1-1.031-.276,7.637,7.637,0,0,1-2.033-1.06,3.789,3.789,0,0,1-.247-.407,2.8,2.8,0,0,1,0-.494A2.6,2.6,0,0,1,20.437,28Z" transform="translate(6.857 11.363)" fill="#151f23"/>
          <path id="Path_6857" data-name="Path 6857" d="M35.31,30.733c.523,1.728,5.619.465,4.356-1.67C38.809,27.408,34.875,29.063,35.31,30.733Z" transform="translate(15.896 12.808)" fill="#ee7d7d" opacity="0.5"/>
          <path id="Path_6858" data-name="Path 6858" d="M17.044,31.572c1.118-.755-2.744-3.3-3.775-2.381S15.679,32.5,17.044,31.572Z" transform="translate(5.866 13.087)" fill="#ee7d7d" opacity="0.5"/>
          <path id="Path_6859" data-name="Path 6859" d="M37.669,14.049c-.755,1.06-8.1,5.938-17.422,3.6,0,0,4.806-3.267,5.619-5.067,0,0-7.448,2.105-7.985,4.022,0,0,2.425-5.43,6.795-6.795a21.778,21.778,0,0,0-4.559,4.457A35.934,35.934,0,0,1,27.2,11.291s-1.684,4.806-5.14,6.156a18.511,18.511,0,0,0,8.2-.523,22.663,22.663,0,0,0,7.4-2.875Z" transform="translate(8.036 4.418)" opacity="0.4" fill="url(#linear-gradient-24)"/>
          <path id="Path_6860" data-name="Path 6860" d="M36.3,10.639c-.465-.189,4.907-2.9,5.125-2.788a85.207,85.207,0,0,1,0,9.452C41.453,17.3,39.13,11.8,36.3,10.639Z" transform="translate(16.345 3.531)" opacity="0.8" fill="url(#linear-gradient-25)"/>
          <path id="Path_6861" data-name="Path 6861" d="M18.414,11.91s-4.544,7.506-4.094,5.735c0-.334-.131-8.711.421-9.452C15.046,7.729,18.3,11.242,18.414,11.91Z" transform="translate(6.413 3.669)" opacity="0.8" fill="url(#linear-gradient-26)"/>
          <path id="Path_6862" data-name="Path 6862" d="M60.13,42.187a8.334,8.334,0,0,1,.842,6.025c.174-1.452-2.9-3.862-3.238-4.152,1.626,1.263,1.6,5.662.944,5.807s-1.35-.682-2.439-.29a30.925,30.925,0,0,1-9.031,5.575A30.155,30.155,0,0,1,41.4,56.6h-.116a40.652,40.652,0,0,1-6.127.479,38.532,38.532,0,0,1-6.374-.494h-.2c-.828-.145-1.626-.319-2.367-.508-7.956-2.018-11.063-6.3-11.063-6.3a18.539,18.539,0,0,1-3.644,1.176c-.363-.16,2.381-4.152,2.468-4.268s-3.746.842-3.789.145,2.076-3.121,1.641-3.76-2.5,1.22-2.5,1.22c.479-4.951,6-7.593,6-7.593a31.07,31.07,0,0,1,.436-13.851s-.755-1.292-1.191-6.214a21.124,21.124,0,0,1,.566-6.359,31.244,31.244,0,0,0,.6,7.709,20.921,20.921,0,0,0,1.016,4.138,78.59,78.59,0,0,0-1.641,7.8,15.84,15.84,0,0,0,.886,7.158s-3.47.682-5.735,5.88c0,0,3.092-1.452,3.383-1.06s-2.512,4.486-2.381,4.559A15.97,15.97,0,0,0,16.125,45c-.1.131-3.688,4.588-3.455,4.936s2.9-1.292,2.991-1.1,8.711,7.855,16.232,7.506c0,0,11.891.711,17.335-2.9s6.766-6.04,8.566-4.675a7.782,7.782,0,0,0-.784-5.807s3.078.9,3.572,2.9c0-.218-.276-3.644-1.307-4.762a3.63,3.63,0,0,1,1.786.857c.479.624-2.729-11.412-5.459-14.519s-.363-7.071-.726-12.384a55.171,55.171,0,0,1-.3-7.782h.247l1.452,17.858c5.662,13.067,5.314,18.54,5.314,18.54Z" transform="translate(4.172 3.27)" opacity="0.5" fill="url(#linear-gradient-27)"/>
          <path id="Path_6863" data-name="Path 6863" d="M22.91,33.865a12.413,12.413,0,0,1,1.22,1.945,6.81,6.81,0,0,0,.45.8,1.858,1.858,0,0,0,1.452.842,2.628,2.628,0,0,0,2.512-1.728,6.794,6.794,0,0,0,.319-.871c.261-.74.45-1.452.45-1.452a8.45,8.45,0,0,1-3.412,1A4.254,4.254,0,0,1,22.91,33.865Z" transform="translate(10.308 15.077)" fill="#72222c"/>
          <path id="Path_6864" data-name="Path 6864" d="M24.06,36.157A1.858,1.858,0,0,0,25.512,37a2.628,2.628,0,0,0,2.512-1.728,6.8,6.8,0,0,0,.319-.871,11.47,11.47,0,0,0-4.283,1.757Z" transform="translate(10.828 15.529)" fill="#841b2e"/>
          <path id="Path_6865" data-name="Path 6865" d="M22.525,32.988a.077.077,0,0,1,.116.1,1.031,1.031,0,0,0-.131.566s.29,1.22,3.586,1.1a6.388,6.388,0,0,1-.189-1.713.087.087,0,1,1,.16,0,6,6,0,0,0,.232,1.641,5.154,5.154,0,0,0,3.993-1.8,6.2,6.2,0,0,0-.726-.261.073.073,0,1,1,0-.145,8.014,8.014,0,0,1,1.452.653v.1h0a4.545,4.545,0,0,0-.6-.3,3.543,3.543,0,0,1-.929.886,5.909,5.909,0,0,1-2.9.987h-.45c-3.5.131-3.76-1.234-3.76-1.249A1.161,1.161,0,0,1,22.525,32.988Z" transform="translate(10.069 14.662)" fill="#7f5233"/>
          <path id="Path_6866" data-name="Path 6866" d="M28.725,30.96a11.731,11.731,0,0,0-2.9,3.151s-2.671-2.9-3.121-3.151h0A10.279,10.279,0,0,1,28.725,30.96Z" transform="translate(10.213 13.771)" fill="#4a3b2f"/>
          <path id="Path_6867" data-name="Path 6867" d="M28.725,30.829a11.731,11.731,0,0,0-2.9,3.151s-2.671-2.9-3.121-3.151a5.561,5.561,0,0,1,2.744,1.945S27.273,30.524,28.725,30.829Z" transform="translate(10.213 13.903)" fill="#4a3b2f" opacity="0.4"/>
        </g>
      </g>
    </g>
  </g>
</svg>
