<svg xmlns="http://www.w3.org/2000/svg" xmlns:xlink="http://www.w3.org/1999/xlink" width="81.275" height="81.275" viewBox="0 0 81.275 81.275">
  <defs>
    <clipPath id="clip-path">
      <circle id="Ellipse_389" data-name="Ellipse 389" cx="40.637" cy="40.637" r="40.637" fill="none"/>
    </clipPath>
    <linearGradient id="linear-gradient" x1="87109.391" y1="-225.131" x2="97397.805" y2="-225.131" gradientUnits="objectBoundingBox">
      <stop offset="0" stop-color="#d6b89e"/>
      <stop offset="0.99" stop-color="#edcfb5"/>
    </linearGradient>
    <linearGradient id="linear-gradient-2" x1="163.562" y1="-29.255" x2="149.725" y2="-20.618" gradientUnits="objectBoundingBox">
      <stop offset="0" stop-color="#025d72"/>
      <stop offset="1" stop-color="#005967"/>
    </linearGradient>
    <linearGradient id="linear-gradient-3" x1="79.609" y1="-22.071" x2="71.376" y2="-14.426" xlink:href="#linear-gradient-2"/>
    <linearGradient id="linear-gradient-4" y1="0.5" x2="1" y2="0.5" gradientUnits="objectBoundingBox">
      <stop offset="0" stop-color="#392423"/>
      <stop offset="1" stop-color="#613b1f"/>
    </linearGradient>
    <linearGradient id="linear-gradient-5" x1="-0.002" y1="0.5" x2="1" y2="0.5" xlink:href="#linear-gradient-4"/>
    <linearGradient id="linear-gradient-6" x1="-103.086" y1="10.822" x2="-102.005" y2="11.279" xlink:href="#linear-gradient-4"/>
    <linearGradient id="linear-gradient-7" x1="25.642" y1="16.146" x2="26.686" y2="16.649" xlink:href="#linear-gradient-4"/>
    <linearGradient id="linear-gradient-8" x1="21.038" y1="-4.803" x2="22.015" y2="-4.803" xlink:href="#linear-gradient"/>
    <linearGradient id="linear-gradient-9" x1="87.411" y1="-5.148" x2="86.907" y2="-4.274" gradientUnits="objectBoundingBox">
      <stop offset="0" stop-color="#fb998f"/>
      <stop offset="1" stop-color="#fb7a6f"/>
    </linearGradient>
    <linearGradient id="linear-gradient-10" x1="94.856" y1="-4.52" x2="95.512" y2="-3.854" xlink:href="#linear-gradient-9"/>
  </defs>
  <g id="Group_1334" data-name="Group 1334" transform="translate(-196.505 -145.191)">
    <g id="Character_cat-17" transform="translate(196.505 145.191)">
      <g id="Layer_10" data-name="Layer 10" transform="translate(0 0)">
        <circle id="Ellipse_388" data-name="Ellipse 388" cx="40.637" cy="40.637" r="40.637" fill="#fcb6b6"/>
        <g id="Group_325" data-name="Group 325" clip-path="url(#clip-path)">
          <path id="Path_6898" data-name="Path 6898" d="M27.675,102.183l14.9,3.586.479-.174,2.468-.886a31.273,31.273,0,0,1-1.844-3.383,63.881,63.881,0,0,1-5.357-18.874c.8-.189,1.452-.392,2.163-.581l.363-.116.842-.276.218-.073.232-.087.348-.131.958-.377c-.16-1.06-.3-2.091-.436-3.049l-1.452-4.239A15.215,15.215,0,0,1,37.5,74.1c0-.407,0-.8,0-1.205v-.624a14.869,14.869,0,0,0-.087-1.96v-2.7h0V42.251a1.756,1.756,0,0,0,0-.276v-.769a1.451,1.451,0,0,1,0-.247h0v-.784h-.2a37.1,37.1,0,0,1-6.243.465,41.306,41.306,0,0,1-6.17-.479H24.67l.218.552c2.149,5.807,6.62,18.409,7.375,26.366a78.1,78.1,0,0,1-1.147,16.537l-.348,2.25C29.5,94.488,27.675,102.183,27.675,102.183Z" transform="translate(11.133 18.132)" fill="#ffe1e5"/>
          <path id="Path_6899" data-name="Path 6899" d="M26.74,102.17l14.9,3.586.479-.174,2.468-.886a31.274,31.274,0,0,1-1.844-3.383,63.765,63.765,0,0,1-5.357-18.874A33.886,33.886,0,0,0,42.507,80.8c-.16-1.06-.3-2.091-.436-3.049L40.62,73.525a15.578,15.578,0,0,1-4.051.566c-.769-12.849-.232-28.834,0-33.9H36.38c-.552,4.08-1.06,16.914-1.161,22.721a91.22,91.22,0,0,0,.436,14.519,6.577,6.577,0,0,1-2.018,6.04l-3.731,2.367C28.569,94.475,26.74,102.17,26.74,102.17Z" transform="translate(12.068 18.145)" fill="#ffe1e5"/>
          <path id="Path_6900" data-name="Path 6900" d="M34.31,82.615a63.882,63.882,0,0,0,5.357,18.874,31.274,31.274,0,0,0,1.815,3.383l1.321-.479c2.308-1.452,6.228-3.876,6.228-3.876l-.958-2.192L43.137,81.308l14.1-2.018L50.919,60.707s-4.994-12.413-7.172-15.753a13.88,13.88,0,0,0-5.3-4.065c-.552-.276-1.1-.537-1.626-.769L36.1,39.8c-.813.2-1.67.377-2.584.537h0v.784h0a1.452,1.452,0,0,0,0,.247v.769a1.756,1.756,0,0,1,0,.276v25.32h0v2.7a14.651,14.651,0,0,0,.087,1.96v1.829a15.215,15.215,0,0,0,4.051-.581L39.1,77.882l.479,1.452.465,1.452h-.131l-.3.131-.958.377-.348.131-.232.087-.218.073-.842.276-.363.116C35.835,82.194,35.109,82.426,34.31,82.615Z" transform="translate(15.125 17.969)" fill="#932830"/>
          <path id="Path_6901" data-name="Path 6901" d="M26.795,83.94a54.154,54.154,0,0,0,10.657.16,48.784,48.784,0,0,0,7.114-1.161c.8-.189,1.452-.392,2.163-.581l.363-.116.842-.276.218-.073.232-.087.348-.131.958-.377.3-.131h.131l-.465-1.452-.479-1.452-1.452-4.239a15.215,15.215,0,0,1-4.051.581,20.936,20.936,0,0,1-3.833-.247,48.288,48.288,0,0,0-.566-6.519h0C37.829,58.285,33.59,46.9,31.252,41.226l-.218-.537H30.9A30.489,30.489,0,0,1,25.1,39.15l-1.22.3-1.307.363A19.585,19.585,0,0,0,16.763,42.4c-4.007,2.9-5.807,5.807-5.953,14.911v3.063C11.246,69.566,13.99,82.488,26.795,83.94Z" transform="translate(4.87 17.675)" fill="#932830"/>
          <path id="Path_6902" data-name="Path 6902" d="M38.106,47.359l-1.975-3.7,2.9-.958-2.12-2.6-.726-.319c-.813.2-1.67.377-2.584.537V41.1h0c-.2,3.107-.276,7.463-.3,11.731v.407c0,6.766,0,13.27.087,14.359v.145h0C34.432,63.024,38.106,47.359,38.106,47.359Z" transform="translate(15.032 17.96)" fill="#6d0f1a"/>
          <path id="Path_6903" data-name="Path 6903" d="M25.724,44.573,22.4,46.214S33.071,61.081,35.989,67.76c-1.452-9.858-5.967-21.691-8.247-27.15a31.359,31.359,0,0,1-5.967-1.51l-1.22.3c-1,1.1-2.236,2.41-2.236,2.41Z" transform="translate(8.263 17.653)" fill="#6d0f1a"/>
          <path id="Path_6904" data-name="Path 6904" d="M36.592,68.544c-1.031-.276-8.711-1.205-13.067-6.867a26.946,26.946,0,0,1-5.285-9.756s-.276,8.145,5.619,12.384a24.115,24.115,0,0,0,12.733,4.239Z" transform="translate(8.227 23.446)" fill="#6d0f1a"/>
          <path id="Path_6905" data-name="Path 6905" d="M11.582,35.32a1.452,1.452,0,0,0,0,.218A1.205,1.205,0,0,1,11.582,35.32Z" transform="translate(5.216 15.945)" fill="url(#linear-gradient)"/>
          <path id="Path_6906" data-name="Path 6906" d="M33.813,40c.45.218,1.452.566,2.512,1.06-.813.2-1.67.377-2.584.537C33.784,40.6,33.813,40,33.813,40Z" transform="translate(15.231 18.06)" fill="url(#linear-gradient-2)"/>
          <path id="Path_6907" data-name="Path 6907" d="M26.969,41.894a32.216,32.216,0,0,1-5.909-1.539c2.686-.624,4.849-.915,4.849-.915C26.156,39.948,26.519,40.79,26.969,41.894Z" transform="translate(9.501 17.807)" fill="url(#linear-gradient-3)"/>
          <path id="Path_6908" data-name="Path 6908" d="M12.633,42.539a8.334,8.334,0,0,0-.842,6.025c-.174-1.452,2.9-3.862,3.238-4.152-1.626,1.263-1.6,5.662-.944,5.807s1.35-.682,2.439-.29A30.925,30.925,0,0,0,25.555,55.5a30.156,30.156,0,0,0,5.807,1.452h.116a40.652,40.652,0,0,0,6.112.479,38.591,38.591,0,0,0,6.388-.494h.2c.828-.145,1.626-.319,2.367-.508,7.956-2.018,11.063-6.3,11.063-6.3a18.54,18.54,0,0,0,3.644,1.176c.363-.16-2.381-4.152-2.468-4.268s3.746.842,3.775.145-2.062-3.121-1.626-3.76,2.5,1.22,2.5,1.22c-.494-4.951-6.054-7.593-6.054-7.593A31.07,31.07,0,0,0,57,23.2s.755-1.292,1.191-6.214a21.125,21.125,0,0,0-.566-6.359A30.01,30.01,0,0,0,56.392,6.49c-2.381.74-6.983,6.548-8.232,5.938-6.5-3.252-11.426-2.018-11.992-1.858A31.316,31.316,0,0,1,44.69,9.539S42.048,7,35.6,7.942s-7.666,3.644-7.666,3.644c-5.807-3.63-8.9-4.065-9.742-4.094h-.247L16.5,25.35c-5.662,13.067-5.314,18.54-5.314,18.54Z" transform="translate(5.036 2.918)" fill="#fff"/>
          <path id="Path_6909" data-name="Path 6909" d="M29.942,20.726c.479.29-1.452-3.325-4.123-3.993s-5.807.377-6.069,2.033a14.678,14.678,0,0,1,10.192,1.96Z" transform="translate(8.91 7.454)" fill="url(#linear-gradient-4)"/>
          <path id="Path_6910" data-name="Path 6910" d="M35.24,21.214a5.43,5.43,0,0,1,3.746-3.964c2.6-.726,4.7,1.815,4.7,1.815a10.555,10.555,0,0,0-4.66.624A27.092,27.092,0,0,0,35.24,21.214Z" transform="translate(15.909 7.721)" fill="url(#linear-gradient-5)"/>
          <path id="Path_6911" data-name="Path 6911" d="M30.91,29.593s-.232-6.359-5.459-7.724a4.791,4.791,0,0,0-6.04,6.185C20.573,31.219,26.061,34.471,30.91,29.593Z" transform="translate(8.624 9.752)" fill="#ccc" opacity="0.5"/>
          <path id="Path_6912" data-name="Path 6912" d="M30.9,28.912v.2h0l-.116.1a7.535,7.535,0,0,1-3.717,1.452,7.913,7.913,0,0,1-3.194-.319,8.479,8.479,0,0,1-1.553-.668,7.114,7.114,0,0,1-3.194-3.862h0l-.145-.61a6.824,6.824,0,0,1,1.8-1.539,6.127,6.127,0,0,1,2.294-.828,6,6,0,0,1,2.642.174,4.675,4.675,0,0,1,1.452.682,9.016,9.016,0,0,1,2.642,2.991Z" transform="translate(8.562 10.274)" fill="#fff"/>
          <path id="Path_6913" data-name="Path 6913" d="M21.3,29.1c0,.087.073.174.116.276l.3.16a8.958,8.958,0,0,0,1.249.508,9.1,9.1,0,0,0,1.844.348A7.492,7.492,0,0,0,29.456,29.2a4.355,4.355,0,0,0,.537-.392h0a12.645,12.645,0,0,0-.857-1.916,9.553,9.553,0,0,0-2.9-3.441,4.661,4.661,0,0,0-2.12.218,4.965,4.965,0,0,0-1.452.813A4.21,4.21,0,0,0,21.3,29.1Z" transform="translate(9.511 10.565)" fill="#351e0a"/>
          <path id="Path_6914" data-name="Path 6914" d="M23.3,28.678a2.5,2.5,0,0,0,.566.9,7.492,7.492,0,0,0,4.646-1.191,2.352,2.352,0,0,0-.073-1.452A2.729,2.729,0,0,0,25,25.368a2.57,2.57,0,0,0-1.7,3.31Z" transform="translate(10.451 11.378)" fill="#1e1005"/>
          <path id="Path_6915" data-name="Path 6915" d="M26.15,22.5a6.5,6.5,0,0,0-4.7.813l-.987-.523.6.784a5.154,5.154,0,0,0-.508.392l-.973-.392.537.769a4.617,4.617,0,0,0-.377.392L18.6,24.346,19.384,26a7.971,7.971,0,0,1,1.945-1.786,5.807,5.807,0,0,1,6.214.174,22.62,22.62,0,0,1,3.6,4.864S30.621,23.4,26.15,22.5Z" transform="translate(8.39 10.092)" fill="url(#linear-gradient-6)"/>
          <path id="Path_6916" data-name="Path 6916" d="M24.684,25a1.118,1.118,0,0,1-1.292.842,1.016,1.016,0,0,1-.886-1.205A1.118,1.118,0,0,1,23.8,23.8,1.016,1.016,0,0,1,24.684,25Z" transform="translate(10.146 10.729)" fill="#fff"/>
          <path id="Path_6917" data-name="Path 6917" d="M30.9,29.053a13.328,13.328,0,0,0-5.43-4.515c-3.194-1.234-6.243,1.263-6.33,1.336a9.03,9.03,0,0,1,1.626-2.163,6.141,6.141,0,0,1,2.279-.828,5.982,5.982,0,0,1,2.642.174,7.927,7.927,0,0,1,4.356,4.123,14,14,0,0,1,.857,1.873Z" transform="translate(8.634 10.292)" fill="#a9a19c"/>
          <path id="Path_6918" data-name="Path 6918" d="M34.11,29.224S35.2,22.777,40.7,21.863s6.649,4.356,5.328,6.838a7.041,7.041,0,0,1-11.92.523Z" transform="translate(15.398 9.817)" fill="#ccc" opacity="0.5"/>
          <path id="Path_6919" data-name="Path 6919" d="M34.11,28.707A7.114,7.114,0,0,0,38.741,30.8a8.116,8.116,0,0,0,2.381-.174,7.129,7.129,0,0,0,1.031-.276,7.637,7.637,0,0,0,2.033-1.06,7.811,7.811,0,0,0,2.381-2.831h0c.131-.377.232-.61.232-.61a6.766,6.766,0,0,0-1.626-1.728,6.083,6.083,0,0,0-2.221-1.074,6.533,6.533,0,0,0-2.729,0,5.633,5.633,0,0,0-1.8.682,10.7,10.7,0,0,0-3.18,3.121,14.083,14.083,0,0,0-1.132,1.858Z" transform="translate(15.398 10.333)" fill="#fff"/>
          <path id="Path_6920" data-name="Path 6920" d="M35.781,27.622a3.847,3.847,0,0,0,2.207,2.991,7.869,7.869,0,0,0,1.641,0,6.591,6.591,0,0,0,.74-.131,7.128,7.128,0,0,0,1.031-.276,7.637,7.637,0,0,0,2.033-1.06,3.455,3.455,0,0,0,.6-2.5,4.167,4.167,0,0,0-8.247,1.016Z" transform="translate(16.151 10.518)" fill="#351e0a"/>
          <path id="Path_6921" data-name="Path 6921" d="M40.12,22.495a6.432,6.432,0,0,1,4.675,1.263l1.074-.508-.711.74c.174.145.334.3.479.45l1.016-.319-.639.74a3.891,3.891,0,0,1,.334.436l1.205-.3L46.537,26.6a7.855,7.855,0,0,0-1.742-1.9,5.909,5.909,0,0,0-6.359-.392,25.1,25.1,0,0,0-4.356,4.631S35.416,23,40.12,22.495Z" transform="translate(15.385 10.128)" fill="url(#linear-gradient-7)"/>
          <path id="Path_6922" data-name="Path 6922" d="M36.68,25.334a1.045,1.045,0,0,0,1.147.944,1.06,1.06,0,0,0,1.016-1.1,1.089,1.089,0,0,0-2.163.16Z" transform="translate(16.559 10.948)" fill="#fff"/>
          <path id="Path_6923" data-name="Path 6923" d="M34.11,28.707a14.417,14.417,0,0,1,6.141-4.21,6.9,6.9,0,0,1,6.272,1.916,9.423,9.423,0,0,0-1.365-2.337,5.967,5.967,0,0,0-2.221-1.031,6.475,6.475,0,0,0-2.715,0,8.566,8.566,0,0,0-4.98,3.8,14.084,14.084,0,0,0-1.132,1.858Z" transform="translate(15.398 10.333)" fill="#a9a19c"/>
          <path id="Path_6924" data-name="Path 6924" d="M37.65,27.965a2.425,2.425,0,0,0,1.132,1.728,6.592,6.592,0,0,0,.74-.131,7.129,7.129,0,0,0,1.031-.276,7.637,7.637,0,0,0,2.033-1.06,3.789,3.789,0,0,0,.247-.407v-.494a2.613,2.613,0,0,0-5.169.639Z" transform="translate(16.998 11.395)" fill="#1e1005"/>
          <path id="Path_6925" data-name="Path 6925" d="M22.618,30.733c-.523,1.728-5.619.465-4.356-1.67C19.119,27.408,23.1,29.063,22.618,30.733Z" transform="translate(8.147 12.808)" fill="#ee7d7d" opacity="0.5"/>
          <path id="Path_6926" data-name="Path 6926" d="M40.753,31.572c-1.118-.755,2.744-3.3,3.76-2.381S42.117,32.5,40.753,31.572Z" transform="translate(18.309 13.087)" fill="#ee7d7d" opacity="0.5"/>
          <path id="Path_6927" data-name="Path 6927" d="M25,14.049c.755,1.06,8.1,5.938,17.495,3.6,0,0-4.82-3.267-5.619-5.067,0,0,7.448,2.105,7.985,4.022,0,0-2.425-5.43-6.795-6.795a21.778,21.778,0,0,1,4.559,4.457,35.933,35.933,0,0,0-7.085-2.976s1.684,4.806,5.14,6.156a18.511,18.511,0,0,1-8.2-.523A22.663,22.663,0,0,1,25,14.049Z" transform="translate(11.282 4.418)" opacity="0.4" fill="url(#linear-gradient-8)"/>
          <path id="Path_6928" data-name="Path 6928" d="M21.843,10.639c.465-.189-4.922-2.9-5.125-2.788a92.378,92.378,0,0,0,0,9.452S19.012,11.8,21.843,10.639Z" transform="translate(7.485 3.531)" opacity="0.8" fill="url(#linear-gradient-9)"/>
          <path id="Path_6929" data-name="Path 6929" d="M39.37,11.91s4.486,7.506,4.094,5.735c0-.334.131-8.711-.421-9.452C42.738,7.729,39.486,11.242,39.37,11.91Z" transform="translate(17.775 3.669)" opacity="0.8" fill="url(#linear-gradient-10)"/>
          <path id="Path_6930" data-name="Path 6930" d="M12.638,42.223a8.334,8.334,0,0,0-.842,6.025c-.174-1.452,2.9-3.862,3.238-4.152-1.626,1.263-1.6,5.662-.944,5.807s1.35-.682,2.439-.29a30.925,30.925,0,0,0,9.031,5.575,30.156,30.156,0,0,0,5.807,1.452h.116a40.652,40.652,0,0,0,6.112.479,38.591,38.591,0,0,0,6.388-.494h.2c.828-.145,1.626-.319,2.367-.508,7.956-2.018,11.063-6.3,11.063-6.3a18.54,18.54,0,0,0,3.644,1.176c.363-.16-2.381-4.152-2.468-4.268s3.746.842,3.775.145-2.062-3.121-1.626-3.76,2.5,1.22,2.5,1.22c-.494-4.951-6.054-7.593-6.054-7.593a31.07,31.07,0,0,0-.377-13.851s.755-1.292,1.191-6.214a21.125,21.125,0,0,0-.566-6.359,31.244,31.244,0,0,1-.6,7.709,20.92,20.92,0,0,1-1.016,4.138,78.587,78.587,0,0,1,1.641,7.8,15.84,15.84,0,0,1-.886,7.158s3.47.682,5.72,5.88c0,0-3.092-1.452-3.368-1.06s2.512,4.486,2.381,4.559a15.97,15.97,0,0,1-4.864-1.452c.1.131,3.688,4.588,3.455,4.936s-2.9-1.292-2.991-1.1S48.4,56.727,40.876,56.379c0,0-11.891.711-17.335-2.9s-6.766-6.04-8.566-4.675a7.782,7.782,0,0,1,.784-5.807s-3.078.9-3.572,2.9c0-.218.276-3.644,1.307-4.762a3.63,3.63,0,0,0-1.786.857c-.479.624,2.729-11.412,5.459-14.519s.363-7.071.711-12.384a53.558,53.558,0,0,0,.3-7.9h-.247L16.485,25.048c-5.662,13.067-5.314,18.54-5.314,18.54Z" transform="translate(5.031 3.234)" fill="#ccc" opacity="0.5"/>
          <path id="Path_6931" data-name="Path 6931" d="M35.587,33.865a12.414,12.414,0,0,0-1.22,1.945,6.809,6.809,0,0,1-.45.8,1.858,1.858,0,0,1-1.452.842,2.657,2.657,0,0,1-2.526-1.728c-.1-.261-.218-.566-.319-.871-.247-.74-.436-1.452-.45-1.452a8.566,8.566,0,0,0,3.426,1,4.254,4.254,0,0,0,2.991-.537Z" transform="translate(13.166 15.077)" fill="#72222c"/>
          <path id="Path_6932" data-name="Path 6932" d="M33.777,36.157A1.858,1.858,0,0,1,32.326,37,2.657,2.657,0,0,1,29.8,35.271c-.1-.261-.218-.566-.319-.871a11.441,11.441,0,0,1,4.3,1.757Z" transform="translate(13.306 15.529)" fill="#841b2e"/>
          <path id="Path_6933" data-name="Path 6933" d="M36.634,32.988a.077.077,0,0,0-.116.1,1.031,1.031,0,0,1,.131.566s-.29,1.22-3.586,1.1a6.388,6.388,0,0,0,.189-1.713.087.087,0,1,0-.16,0,6,6,0,0,1-.2,1.641,5.125,5.125,0,0,1-3.993-1.8,6.2,6.2,0,0,1,.726-.261.073.073,0,0,0,0-.145,8.014,8.014,0,0,0-1.452.653v.1h0a4.545,4.545,0,0,1,.6-.3,3.542,3.542,0,0,0,.929.886,5.909,5.909,0,0,0,2.9.987h.45c3.5.131,3.76-1.234,3.76-1.249a1.161,1.161,0,0,0-.174-.566Z" transform="translate(12.714 14.662)" fill="#7f5233"/>
          <path id="Path_6934" data-name="Path 6934" d="M29.65,30.96a11.731,11.731,0,0,1,2.9,3.151s2.671-2.9,3.121-3.151h0A10.279,10.279,0,0,0,29.65,30.96Z" transform="translate(13.383 13.771)" fill="#4a3b2f"/>
          <path id="Path_6935" data-name="Path 6935" d="M29.65,30.829a11.731,11.731,0,0,1,2.9,3.151s2.671-2.9,3.121-3.151a5.561,5.561,0,0,0-2.744,1.945S31.1,30.524,29.65,30.829Z" transform="translate(13.383 13.903)" fill="#4a3b2f" opacity="0.4"/>
        </g>
      </g>
    </g>
  </g>
</svg>
